<?xml version="1.0" encoding="UTF-8" standalone="no"?>
<!DOCTYPE svg PUBLIC "-//W3C//DTD SVG 1.1//EN" "http://www.w3.org/Graphics/SVG/1.1/DTD/svg11.dtd">
<svg width="100%" height="100%" viewBox="0 0 1936 6886" version="1.1" xmlns="http://www.w3.org/2000/svg" xmlns:xlink="http://www.w3.org/1999/xlink" xml:space="preserve" xmlns:serif="http://www.serif.com/" style="fill-rule:evenodd;clip-rule:evenodd;stroke-miterlimit:2;">
    <g id="Mask_Group_9" transform="matrix(1,0,0,1,-3277,1945)">
        <g opacity="0.4">
            <g id="shutterstock_719436154" transform="matrix(1,0,0,1,2395.91,-2134)">
                <g opacity="0.5">
                    <g id="Group_1421">
                        <g id="Group_1324">
                        </g>
                        <g id="Group_1325">
                        </g>
                        <g id="Group_1326">
                        </g>
                        <g id="Group_1327">
                        </g>
                        <g id="Group_1328">
                        </g>
                        <g id="Group_1329">
                        </g>
                        <g id="Group_1330">
                        </g>
                        <g id="Group_1331">
                        </g>
                        <g id="Group_1332">
                        </g>
                        <g id="Group_1333">
                        </g>
                        <g id="Group_1334">
                        </g>
                        <g id="Group_1335">
                        </g>
                        <g id="Group_1336">
                        </g>
                        <g id="Group_1337">
                        </g>
                        <g id="Group_1338">
                        </g>
                        <g id="Group_1339">
                        </g>
                        <g id="Group_1340">
                        </g>
                        <g id="Group_1341">
                        </g>
                        <g id="Group_1342">
                        </g>
                        <g id="Group_1343">
                        </g>
                        <g id="Group_1344">
                        </g>
                        <g transform="matrix(1,0,0,1,248.504,484.44)">
                            <g id="Group_1345">
                                <path id="Path_7616" d="M547.885,-263.079C571.619,3.34 575.016,280.347 558.84,550C548.84,716.683 531.401,880.909 508.329,1036.69C504.508,1062.53 500.523,1088.11 496.374,1113.41C462.479,1319.7 416.923,1517.31 410.561,1733.27C409.735,1760.94 409.599,1788.97 410.152,1817.34C414.83,2038.74 465.577,2238.03 506.867,2446.78C529.713,2562.38 549.467,2679.7 557.767,2803.24C567.889,2952.05 561.026,3098.68 545.667,3243.26C517.912,3503.2 462.456,3758.96 428.118,4019.65C408.11,4171.36 399.618,4329 398.154,4482.51C396.682,4636.21 402.138,4787.59 411.654,4940.75C421.164,5093.81 434.923,5250.25 448.408,5405.48C458.426,5520.81 468.329,5633.26 480.576,5742.02C482.299,5757.24 484.062,5772.39 485.866,5787.46C500.543,5910.24 517.121,6030.76 538.311,6152.05C572.399,6347.11 613.086,6542.98 656.694,6726.57" style="fill:none;stroke:white;stroke-width:1px;"/>
                            </g>
                        </g>
                        <g transform="matrix(1,0,0,1,230.568,485.277)">
                            <g id="Group_1346">
                                <path id="Path_7617" d="M582.986,-265.113C605.88,-0.838 609.247,273.608 593.828,540.993C584.296,706.265 567.641,869.393 546.477,1023.64C542.972,1049.24 539.332,1074.54 535.555,1099.54C504.669,1303.34 463.769,1496.47 460.276,1707.14C459.809,1734.13 460.007,1761.47 460.869,1789.15C467.977,2005.29 519.231,2201.22 559.639,2408.49C582.012,2523.37 600.76,2639.95 608.146,2762.33C617.198,2909.48 609.461,3054.3 593.483,3196.58C564.512,3452.7 508.472,3704.32 474.411,3962.8C453.748,4119.33 447.545,4282.67 449.096,4438.99C450.638,4595.49 459.77,4747.67 472.207,4902.92C484.639,5058.08 500.66,5218.69 513.514,5379.13C523.063,5498.35 530.914,5614.13 540.768,5725.78C542.153,5741.4 543.576,5756.94 545.036,5772.4C556.907,5898.34 569.992,6022.45 589.954,6148.07C621.293,6345.34 662.345,6544.23 707.872,6724.46" style="fill:none;stroke:white;stroke-width:1px;"/>
                            </g>
                        </g>
                        <g transform="matrix(1,0,0,1,213.123,486.116)">
                            <g id="Group_1347">
                                <path id="Path_7618" d="M618.284,-267.15C640.337,-5.015 643.678,266.861 629.013,531.979C619.951,695.845 604.079,857.852 584.825,1010.58C581.64,1035.93 578.344,1060.96 574.937,1085.66C547.057,1286.96 510.813,1475.63 510.192,1681.02C510.086,1707.32 510.619,1733.97 511.792,1760.98C521.326,1971.83 573.092,2164.41 612.617,2370.19C634.517,2484.35 652.262,2600.2 658.73,2721.42C666.711,2866.9 658.099,3009.9 641.5,3149.9C611.312,3402.19 554.69,3649.67 520.906,3905.94C499.59,4067.28 495.676,4236.32 500.24,4395.45C504.798,4554.75 517.605,4707.73 532.962,4865.07C548.316,5022.32 566.602,5187.1 578.824,5352.77C587.903,5475.86 593.703,5594.97 601.161,5709.52C602.214,5725.54 603.298,5741.47 604.413,5757.32C613.475,5886.42 623.091,6014.05 641.801,6144.13C670.457,6343.37 711.807,6545.44 759.252,6722.38" style="fill:none;stroke:white;stroke-width:1px;"/>
                            </g>
                        </g>
                        <g transform="matrix(1,0,0,1,195.989,486.955)">
                            <g id="Group_1348">
                                <path id="Path_7619" d="M653.711,-269.188C674.921,-9.188 678.235,260.123 664.329,522.962C655.729,685.429 640.643,846.326 623.299,997.511C620.432,1022.62 617.482,1047.38 614.447,1071.77C589.571,1270.58 557.986,1454.77 560.231,1654.87C560.489,1680.49 561.358,1706.46 562.837,1732.78C574.799,1938.37 627.064,2127.59 665.714,2331.89C687.136,2445.33 703.774,2560.47 709.432,2680.51C716.211,2824.35 706.857,2965.51 689.632,3103.2C658.232,3351.68 601.032,3595.03 567.515,3849.09C545.544,4015.23 543.923,4189.98 551.501,4351.91C559.072,4514.02 575.556,4667.8 593.832,4827.22C612.108,4986.57 632.66,5155.53 644.249,5326.41C652.858,5453.38 656.609,5575.83 661.672,5693.27C662.387,5709.68 663.131,5726.01 663.903,5742.24C670.159,5874.49 676.335,6005.54 693.763,6140.15C719.803,6341.3 761.384,6546.73 810.749,6720.26" style="fill:none;stroke:white;stroke-width:1px;"/>
                            </g>
                        </g>
                        <g transform="matrix(1,0,0,1,179.061,487.792)">
                            <g id="Group_1349">
                                <path id="Path_7620" d="M689.218,-271.221C709.59,-13.371 712.878,253.379 699.718,513.947C691.588,675.008 677.287,834.789 661.851,984.447C659.302,1009.31 656.696,1033.8 654.032,1057.89C632.162,1254.19 605.232,1433.92 610.35,1628.74C610.969,1653.68 612.173,1678.96 613.961,1704.6C628.352,1904.92 681.12,2090.77 718.89,2293.59C739.837,2406.32 755.459,2520.72 760.214,2639.59C765.901,2781.76 755.695,2921.11 737.853,3056.51C705.232,3301.16 647.447,3540.37 614.212,3792.22C591.591,3963.17 592.258,4143.62 602.85,4308.37C613.432,4473.27 633.592,4627.85 654.792,4789.37C675.992,4950.82 698.804,5123.95 709.762,5300.05C717.9,5430.88 719.6,5556.67 722.273,5677C722.656,5693.82 723.06,5710.54 723.485,5727.15C726.932,5862.56 729.702,5997.03 745.815,6136.15C769.306,6339.1 811.054,6547.95 862.336,6718.18" style="fill:none;stroke:white;stroke-width:1px;"/>
                            </g>
                        </g>
                        <g transform="matrix(1,0,0,1,162.276,488.629)">
                            <g id="Group_1350">
                                <path id="Path_7621" d="M724.779,-273.254C744.31,-17.554 747.569,246.635 735.173,504.929C727.508,664.591 713.99,823.257 700.464,971.387C698.236,996.003 695.975,1020.21 693.681,1044.01C674.817,1237.81 652.548,1413.08 660.53,1602.61C661.511,1626.86 663.049,1651.46 665.145,1676.41C681.966,1871.46 735.238,2053.96 772.129,2255.29C792.602,2367.3 807.204,2480.97 811.058,2598.68C815.658,2739.18 804.593,2876.72 786.129,3009.84C752.294,3250.66 693.929,3485.73 660.965,3735.37C637.691,3911.13 640.649,4097.29 654.252,4264.84C667.852,4432.55 691.685,4587.93 715.808,4751.54C739.925,4915.08 765.008,5092.4 775.331,5273.7C783.001,5408.42 782.649,5537.54 782.921,5660.76C782.969,5677.99 783.036,5695.1 783.121,5712.09C783.762,5850.66 783.157,5988.42 797.921,6132.24C818.929,6336.81 860.778,6549.2 913.977,6716.07" style="fill:none;stroke:white;stroke-width:1px;"/>
                            </g>
                        </g>
                        <g transform="matrix(1,0,0,1,145.594,489.468)">
                            <g id="Group_1351">
                                <path id="Path_7622" d="M760.378,-275.292C779.068,-21.726 782.3,239.89 770.659,495.917C763.459,654.174 750.728,811.73 739.113,958.327C737.2,982.7 735.284,1006.63 733.363,1030.13C717.506,1221.43 700.063,1392.17 710.744,1576.48C712.11,1600.03 713.944,1623.94 716.366,1648.22C735.615,1838.01 789.393,2017.14 825.405,2216.99C845.405,2328.29 858.989,2441.22 861.938,2557.76C865.45,2696.58 853.647,2832.43 834.446,2963.15C799.607,3200.33 740.446,3431.08 707.758,3678.51C683.831,3859.08 689.077,4050.95 705.696,4221.31C722.307,4391.81 749.819,4547.99 776.861,4713.69C803.9,4879.33 831.246,5060.82 840.939,5247.34C848.139,5385.94 845.739,5518.4 843.613,5644.51C843.329,5662.13 843.055,5679.63 842.792,5697.01C840.624,5838.73 836.681,5979.8 850.062,6128.25C868.646,6334.51 910.534,6550.44 965.653,6713.95" style="fill:none;stroke:white;stroke-width:1px;"/>
                            </g>
                        </g>
                        <g transform="matrix(1,0,0,1,128.99,490.305)">
                            <g id="Group_1352">
                                <path id="Path_7623" d="M796.006,-277.325C813.853,-25.906 817.059,233.147 806.173,486.9C799.443,643.751 787.495,800.2 777.787,945.261C776.195,969.385 774.624,993.046 773.073,1016.24C760.219,1205.05 747.45,1371.29 760.985,1550.34C762.712,1573.21 764.861,1596.44 767.612,1620.04C789.135,1804.65 843.573,1980.32 878.703,2178.68C898.227,2289.26 910.803,2401.45 912.844,2516.84C915.27,2653.99 902.616,2788.03 882.784,2916.45C846.745,3149.83 786.984,3376.42 754.576,3621.64C729.991,3807.02 737.531,4004.59 757.161,4177.76C776.786,4351.06 807.973,4508.05 837.937,4675.84C867.896,4843.57 897.508,5029.23 906.567,5220.97C913.3,5363.45 908.843,5499.24 904.327,5628.25C903.708,5646.27 903.094,5664.16 902.487,5681.92C897.51,5826.8 890.269,5971.05 902.229,6124.31C918.45,6332.07 960.316,6551.65 1017.35,6711.86" style="fill:none;stroke:white;stroke-width:1px;"/>
                            </g>
                        </g>
                        <g transform="matrix(1,0,0,1,112.446,491.145)">
                            <g id="Group_1353">
                                <path id="Path_7624" d="M831.651,-279.363C848.66,-30.083 851.84,226.4 841.708,477.884C835.447,633.33 824.282,788.665 816.485,932.2C815.208,956.081 813.981,979.468 812.802,1002.36C802.957,1188.67 794.858,1350.42 811.248,1524.21C813.339,1546.39 815.822,1568.94 818.879,1591.84C842.823,1771.22 897.774,1943.5 932.025,2140.38C951.077,2250.24 962.637,2361.68 963.771,2475.93C965.113,2611.39 951.604,2743.65 931.146,2869.77C893.903,3099.34 833.546,3321.77 801.413,3564.78C776.178,3754.98 786.006,3958.25 808.649,4134.22C831.287,4310.33 866.149,4468.11 899.036,4637.99C931.917,4807.82 963.793,4997.66 972.219,5194.61C978.482,5340.97 971.976,5480.1 965.065,5612C964.111,5630.42 963.156,5648.7 962.201,5666.84C954.423,5814.89 943.918,5962.37 954.418,6120.33C968.334,6329.66 1010.12,6552.89 1069.08,6709.74" style="fill:none;stroke:white;stroke-width:1px;"/>
                            </g>
                        </g>
                        <g transform="matrix(1,0,0,1,95.951,491.981)">
                            <g id="Group_1354">
                                <path id="Path_7625" d="M867.314,-281.4C883.482,-34.266 886.633,219.65 877.26,468.863C871.46,622.903 861.082,777.123 855.195,919.132C854.236,942.765 853.354,965.88 852.548,988.477C845.707,1172.28 842.277,1329.53 861.526,1498.07C863.981,1519.55 866.799,1541.43 870.162,1563.64C896.529,1737.77 951.99,1906.67 985.362,2102.07C1003.93,2211.21 1014.49,2321.91 1014.71,2435C1014.97,2568.79 1000.61,2699.25 979.52,2823.06C941.07,3048.83 880.12,3267.11 848.264,3507.9C822.374,3702.9 834.493,3911.88 860.149,4090.66C885.801,4269.58 924.34,4428.16 960.149,4600.13C995.954,4772.05 1030.09,4966.07 1037.89,5168.24C1043.68,5318.47 1035.12,5460.93 1025.82,5595.73C1024.53,5614.55 1023.24,5633.22 1021.94,5651.75C1011.35,5802.95 997.622,5953.62 1006.62,6116.32C1018.29,6327.23 1059.94,6554.11 1120.82,6707.66" style="fill:none;stroke:white;stroke-width:1px;"/>
                            </g>
                        </g>
                        <g transform="matrix(1,0,0,1,79.498,492.821)">
                            <g id="Group_1355">
                                <path id="Path_7626" d="M902.991,-283.434C918.316,-38.44 921.44,212.914 912.822,459.849C907.5,612.49 897.9,765.6 893.919,906.07C893.281,929.459 892.743,952.303 892.305,974.6C888.473,1155.91 889.705,1308.66 911.814,1471.93C914.632,1492.74 917.788,1513.93 921.457,1535.46C950.248,1704.34 1006.22,1869.86 1038.71,2063.76C1056.81,2172.19 1066.36,2282.15 1065.67,2394.09C1064.85,2526.19 1049.62,2654.86 1027.91,2776.38C988.252,2998.34 926.718,3212.45 895.133,3451.04C868.59,3650.86 883,3865.54 911.67,4047.13C940.335,4228.84 982.55,4388.23 1021.28,4562.29C1060,4736.31 1096.41,4934.51 1103.57,5141.89C1108.89,5296.01 1098.28,5441.8 1086.58,5579.49C1084.96,5598.72 1083.33,5617.78 1081.69,5636.69C1068.29,5791.04 1051.38,5944.9 1058.84,6112.41C1068.3,6324.76 1109.78,6555.36 1172.57,6705.55" style="fill:none;stroke:white;stroke-width:1px;"/>
                            </g>
                        </g>
                        <g transform="matrix(1,0,0,1,63.079,493.658)">
                            <g id="Group_1356">
                                <path id="Path_7627" d="M938.675,-285.467C953.159,-42.618 956.257,206.168 948.395,450.833C943.534,602.068 934.722,754.063 932.653,893.006C932.332,916.153 932.14,938.722 932.075,960.714C931.246,1139.52 937.136,1287.77 962.116,1445.8C965.296,1465.91 968.786,1486.43 972.763,1507.27C1003.98,1670.9 1060.46,1833.04 1092.07,2025.47C1109.92,2133.76 1118.14,2243.43 1116.63,2353.17C1114.74,2483.6 1098.64,2610.47 1076.31,2729.69C1035.44,2947.85 973.317,3157.8 942.01,3394.18C914.81,3598.81 931.51,3819.19 963.196,4003.6C994.875,4188.11 1040.77,4348.3 1082.41,4524.45C1124.06,4700.56 1162.73,4902.93 1169.26,5115.53C1174.12,5273.52 1161.46,5422.66 1147.36,5563.23C1145.4,5582.86 1143.43,5602.32 1141.45,5621.61C1125.25,5779.12 1105.18,5936.16 1111.07,6108.43C1118.38,6322.28 1159.62,6556.65 1224.34,6703.43" style="fill:none;stroke:white;stroke-width:1px;"/>
                            </g>
                        </g>
                        <g transform="matrix(1,0,0,1,48.096,494.496)">
                            <g id="Group_1357">
                                <path id="Path_7628" d="M974.922,-287.5C988.568,-46.792 991.637,199.43 984.529,441.824C980.138,591.653 972.109,742.537 971.948,879.947C971.948,902.845 972.101,925.14 972.406,946.833C974.581,1123.14 985.13,1266.89 1012.98,1419.66C1016.52,1439.09 1020.35,1458.93 1024.63,1479.08C1058.28,1637.46 1115.26,1796.21 1145.99,1987.16C1163.25,2094.62 1170.67,2203.44 1168.16,2312.25C1165.2,2440.99 1148.23,2566.08 1125.27,2682.98C1083.18,2897.33 1020.48,3103.14 989.448,3337.31C961.597,3546.74 980.586,3772.83 1015.28,3960.04C1049.97,4147.36 1099.54,4308.34 1144.11,4486.6C1188.68,4664.79 1229.61,4871.34 1235.51,5089.16C1239.89,5251.03 1225.19,5403.49 1208.69,5546.98C1206.4,5566.99 1204.09,5586.84 1201.76,5606.52C1182.75,5767.19 1159.58,5927.41 1163.86,6104.43C1169.05,6319.8 1210.03,6557.87 1276.66,6701.35" style="fill:none;stroke:white;stroke-width:1px;"/>
                            </g>
                        </g>
                        <g transform="matrix(1,0,0,1,34.702,495.334)">
                            <g id="Group_1358">
                                <path id="Path_7629" d="M1011.79,-289.538C1024.59,-50.975 1027.63,192.679 1021.28,432.8C1017.36,581.224 1010.11,731 1011.86,866.88C1012.18,889.535 1012.67,911.557 1013.35,932.945C1018.54,1106.76 1033.74,1246.01 1064.46,1393.52C1068.36,1412.26 1072.53,1431.42 1077.12,1450.89C1113.2,1604.01 1170.68,1759.39 1200.53,1948.85C1217.2,2055.48 1223.82,2163.45 1220.3,2271.33C1216.27,2398.39 1198.43,2521.68 1174.85,2636.29C1131.55,2846.82 1068.26,3048.48 1037.5,3280.44C1009,3494.68 1030.28,3726.49 1067.99,3916.5C1105.69,4106.62 1158.94,4268.4 1206.43,4448.75C1253.92,4629.05 1297.12,4839.77 1302.38,5062.81C1306.3,5228.55 1289.54,5384.35 1270.65,5530.73C1268.03,5551.15 1265.37,5571.4 1262.7,5591.45C1240.88,5755.27 1214.64,5918.68 1217.27,6100.51C1220.39,6317.33 1261.05,6559.11 1329.6,6699.24" style="fill:none;stroke:white;stroke-width:1px;"/>
                            </g>
                        </g>
                        <g transform="matrix(1,0,0,1,22.229,496.172)">
                            <g id="Group_1359">
                                <path id="Path_7630" d="M1049.01,-291.575C1060.96,-55.153 1063.98,185.937 1058.39,423.784C1054.93,570.802 1048.47,719.465 1052.13,853.814C1052.76,876.22 1053.6,897.969 1054.65,919.062C1062.84,1090.37 1082.69,1225.13 1116.29,1367.38C1120.55,1385.42 1125.06,1403.91 1129.95,1422.69C1168.47,1570.56 1226.45,1722.56 1255.42,1910.53C1271.5,2016.35 1277.32,2123.47 1272.8,2230.4C1267.7,2355.78 1248.97,2477.27 1224.78,2589.59C1180.26,2796.3 1116.39,2993.81 1085.91,3223.56C1056.75,3442.61 1080.32,3680.12 1121.05,3872.95C1161.77,4065.86 1218.69,4228.44 1269.1,4410.88C1319.51,4593.28 1364.97,4808.18 1369.61,5036.43C1373.05,5206.05 1354.24,5365.19 1332.95,5514.45C1330,5535.28 1327.01,5555.91 1323.99,5576.35C1299.36,5743.33 1270.09,5909.92 1271.02,6096.51C1272.11,6314.89 1312.42,6560.32 1382.89,6697.15" style="fill:none;stroke:white;stroke-width:1px;"/>
                            </g>
                        </g>
                        <g transform="matrix(1,0,0,1,10.181,497.01)">
                            <g id="Group_1360">
                                <path id="Path_7631" d="M1085.44,-293.609C1096.57,-59.327 1099.55,179.191 1094.71,414.769C1091.72,560.381 1086.04,707.929 1091.61,840.751C1092.56,862.908 1093.75,884.382 1095.17,905.172C1106.37,1073.98 1130.86,1204.26 1167.34,1341.25C1171.96,1358.6 1176.81,1376.4 1182.01,1394.5C1222.96,1537.11 1281.44,1685.73 1309.53,1872.23C1325.26,1977.06 1329.8,2083.3 1324.52,2189.48C1318.35,2313.17 1298.74,2432.87 1273.93,2542.89C1228.18,2745.79 1163.74,2939.15 1133.54,3166.69C1103.73,3390.56 1129.59,3633.77 1173.33,3829.41C1217.06,4025.12 1277.65,4188.51 1330.99,4373.04C1384.32,4557.52 1432.05,4776.61 1436.05,5010.08C1439.02,5183.58 1418.16,5346.04 1394.48,5498.21C1391.19,5519.43 1387.86,5540.46 1384.49,5561.28C1357.06,5731.42 1324.79,5901.21 1324,6092.53C1323.09,6312.43 1363.02,6561.57 1435.4,6695.03" style="fill:none;stroke:white;stroke-width:1px;"/>
                            </g>
                        </g>
                        <g transform="matrix(1,0,0,1,2.634,497.849)">
                            <g id="Group_1361">
                                <path id="Path_7632" d="M1110.72,-295.646C1121,-63.5 1123.96,172.448 1119.88,405.747C1117.35,549.959 1112.46,696.39 1119.94,827.678C1121.21,849.598 1122.74,870.802 1124.53,891.289C1138.73,1057.6 1167.87,1183.4 1207.23,1315.1C1212.21,1331.77 1217.4,1348.9 1222.91,1366.3C1266.3,1503.64 1325.27,1648.9 1352.49,1833.9C1367.74,1938.03 1371.29,2043.52 1365.07,2148.54C1357.85,2270.55 1337.35,2388.45 1311.92,2496.18C1264.94,2695.24 1199.94,2884.47 1170.01,3109.8C1139.54,3338.48 1167.69,3587.39 1214.44,3785.84C1261.19,3984.36 1325.46,4148.54 1381.71,4335.16C1437.97,4521.75 1487.96,4745.01 1491.33,4983.69C1493.84,5161.06 1470.92,5326.86 1444.85,5481.93C1441.22,5503.55 1437.55,5524.97 1433.84,5546.18C1403.6,5719.48 1368.38,5892.49 1365.82,6088.57C1362.94,6310.03 1402.46,6562.78 1476.76,6692.94" style="fill:none;stroke:white;stroke-width:1px;"/>
                            </g>
                        </g>
                        <g transform="matrix(1,0,0,1,-4.834,498.686)">
                            <g id="Group_1362">
                                <path id="Path_7633" d="M1135.98,-297.679C1145.42,-67.679 1148.35,165.701 1145.02,396.733C1142.96,539.54 1138.86,684.86 1148.25,814.615C1149.83,836.286 1151.71,857.216 1153.87,877.404C1171.08,1041.22 1204.86,1162.54 1247.11,1288.96C1252.45,1304.94 1257.98,1321.38 1263.79,1338.11C1309.62,1470.18 1369.09,1612.08 1395.42,1795.6C1410.2,1899 1412.76,2003.76 1405.61,2107.62C1397.33,2227.95 1375.93,2344.04 1349.89,2449.49C1301.69,2644.72 1236.11,2829.81 1206.46,3052.93C1175.34,3286.43 1205.78,3541.05 1255.54,3742.3C1305.31,3943.62 1373.25,4108.61 1432.43,4297.32C1491.6,4486 1543.86,4713.44 1546.6,4957.34C1548.63,5138.59 1523.66,5307.73 1495.2,5465.69C1491.24,5487.71 1487.23,5509.52 1483.17,5531.11C1450.13,5707.57 1411.97,5883.85 1407.62,6084.61C1402.8,6307.69 1441.88,6564.03 1518.1,6690.83" style="fill:none;stroke:white;stroke-width:1px;"/>
                            </g>
                        </g>
                        <g transform="matrix(1,0,0,1,-12.23,499.525)">
                            <g id="Group_1363">
                                <path id="Path_7634" d="M1161.22,-299.717C1169.82,-71.867 1172.73,158.96 1170.15,387.713C1168.56,529.12 1165.24,673.33 1176.54,801.552C1178.44,822.98 1180.66,843.636 1183.2,863.52C1203.41,1024.83 1241.83,1141.69 1286.96,1262.82C1292.66,1278.12 1298.54,1293.87 1304.65,1309.92C1352.92,1436.71 1412.88,1575.25 1438.33,1757.3C1452.63,1859.98 1454.21,1964 1446.13,2066.7C1436.8,2185.36 1414.5,2299.63 1387.85,2402.8C1338.4,2594.19 1272.27,2775.15 1242.89,2996.06C1211.11,3234.37 1243.85,3494.7 1296.62,3698.76C1349.4,3902.88 1421.02,4068.67 1483.12,4259.48C1545.22,4450.25 1599.74,4681.86 1601.84,4930.98C1603.41,5116.12 1576.39,5288.59 1545.53,5449.45C1541.23,5471.87 1536.89,5494.06 1532.48,5516.04C1496.63,5695.65 1455.57,5875.22 1449.4,6080.69C1442.66,6305.34 1481.27,6565.33 1559.41,6688.73" style="fill:none;stroke:white;stroke-width:1px;"/>
                            </g>
                        </g>
                        <g transform="matrix(1,0,0,1,-19.547,500.362)">
                            <g id="Group_1364">
                                <path id="Path_7635" d="M1186.44,-301.75C1194.2,-76.05 1197.08,152.211 1195.26,378.695C1194.14,518.695 1191.6,661.79 1204.81,788.483C1207.03,809.662 1209.6,830.046 1212.51,849.634C1235.73,1008.45 1278.78,1120.85 1326.81,1236.67C1332.87,1251.29 1339.1,1266.3 1345.5,1281.71C1396.32,1402.98 1456.66,1538.41 1481.24,1718.97C1495.06,1820.94 1495.65,1924.21 1486.64,2025.76C1476.25,2142.75 1453.05,2255.19 1425.79,2356.08C1375.11,2543.63 1308.41,2720.47 1279.3,2939.16C1246.88,3182.28 1281.9,3448.32 1337.69,3655.19C1393.48,3862.12 1468.78,4028.71 1533.79,4221.59C1598.81,4414.46 1655.6,4650.26 1657.07,4904.59C1658.16,5093.6 1629.1,5269.41 1595.84,5433.16C1591.21,5455.98 1586.52,5478.57 1581.78,5500.93C1543.11,5683.7 1499.18,5866.58 1491.17,6076.68C1482.53,6303.07 1520.65,6566.54 1600.71,6686.63" style="fill:none;stroke:white;stroke-width:1px;"/>
                            </g>
                        </g>
                        <g transform="matrix(1,0,0,1,-26.786,501.201)">
                            <g id="Group_1365">
                                <path id="Path_7636" d="M1211.65,-303.788C1218.57,-80.219 1221.43,145.464 1220.37,369.681C1219.71,508.27 1217.96,650.26 1233.07,775.42C1235.61,796.353 1238.52,816.461 1241.8,835.744C1268.02,992.06 1315.71,1100.02 1366.63,1210.54C1373.05,1224.47 1379.61,1238.8 1386.32,1253.52C1439.57,1369.52 1500.42,1501.58 1524.11,1680.66C1537.47,1781.91 1537.08,1884.46 1527.12,1984.84C1515.69,2100.16 1491.58,2210.77 1463.71,2309.38C1411.79,2493.08 1344.53,2665.8 1315.7,2882.29C1282.62,3130.22 1319.94,3401.96 1378.74,3611.65C1437.54,3821.37 1516.51,3988.76 1584.46,4183.75C1652.39,4378.71 1711.45,4618.69 1712.29,4878.24C1712.91,5071.12 1681.79,5250.27 1646.14,5416.92C1641.18,5440.14 1636.15,5463.12 1631.06,5485.86C1589.59,5671.78 1542.82,5858.02 1532.92,6072.7C1522.41,6300.78 1560.03,6567.79 1642,6684.52" style="fill:none;stroke:white;stroke-width:1px;"/>
                            </g>
                        </g>
                        <g transform="matrix(1,0,0,1,-33.946,502.038)">
                            <g id="Group_1366">
                                <path id="Path_7637" d="M1236.86,-305.821C1242.94,-84.399 1245.76,138.72 1245.46,360.657C1245.27,497.846 1244.3,638.719 1261.32,762.351C1264.19,783.038 1267.44,802.874 1271.09,821.859C1300.32,975.668 1352.57,1079.42 1406.45,1184.38C1413.22,1197.67 1420.12,1211.31 1427.15,1225.31C1482.83,1336.04 1544.18,1464.75 1567,1642.34C1579.88,1742.87 1578.51,1844.69 1567.62,1943.9C1555.14,2057.55 1530.04,2166.22 1501.64,2262.66C1448.34,2442.28 1380.66,2611.12 1352.11,2825.41C1318.37,3078.14 1357.98,3355.59 1419.79,3568.09C1481.61,3780.6 1564.26,3948.8 1635.12,4145.88C1705.98,4342.95 1767.3,4587.09 1767.51,4851.85C1767.66,5048.62 1734.49,5231.1 1696.44,5400.65C1691.15,5424.27 1685.78,5447.64 1680.34,5470.77C1636.07,5659.85 1586.48,5849.47 1574.68,6068.77C1562.31,6298.58 1599.39,6569.01 1683.29,6682.44" style="fill:none;stroke:white;stroke-width:1px;"/>
                            </g>
                        </g>
                        <g transform="matrix(1,0,0,1,-41.022,502.877)">
                            <g id="Group_1367">
                                <path id="Path_7638" d="M1262.05,-307.859C1267.29,-88.578 1270.09,131.973 1270.54,351.641C1270.81,487.424 1270.63,627.187 1289.56,749.286C1292.74,769.725 1296.34,789.287 1300.36,807.972C1332.6,959.281 1389.51,1058.56 1446.26,1158.25C1453.39,1170.84 1460.63,1183.8 1467.96,1197.12C1526.07,1302.57 1587.92,1427.92 1609.86,1604.02C1622.27,1703.84 1619.92,1804.93 1608.08,1902.98C1594.56,2014.98 1568.56,2121.81 1539.54,2215.96C1485.03,2391.75 1416.76,2556.46 1388.48,2768.53C1354.1,3026.08 1395.99,3309.24 1460.82,3524.54C1525.65,3739.87 1611.98,3908.86 1685.76,4108.02C1759.54,4307.19 1823.12,4555.51 1822.7,4825.5C1822.38,5026.15 1787.16,5211.96 1746.72,5384.4C1741.09,5408.42 1735.38,5432.18 1729.6,5455.69C1682.52,5647.94 1630.14,5840.96 1616.41,6064.78C1602.2,6296.4 1638.74,6570.25 1724.56,6680.32" style="fill:none;stroke:white;stroke-width:1px;"/>
                            </g>
                        </g>
                        <g transform="matrix(1,0,0,1,-48.016,503.716)">
                            <g id="Group_1368">
                                <path id="Path_7639" d="M1287.24,-309.9C1291.64,-92.76 1294.41,125.22 1295.61,342.621C1296.36,476.997 1296.96,615.644 1317.8,736.215C1321.3,756.41 1325.24,775.698 1329.63,794.079C1364.88,942.9 1426.44,1037.7 1486.06,1132.1C1493.55,1144.01 1501.12,1156.28 1508.77,1168.92C1569.31,1269.1 1631.67,1391.08 1652.72,1565.7C1664.65,1664.8 1661.39,1765.21 1648.55,1862.03C1634.06,1972.43 1607.09,2077.38 1577.44,2169.25C1521.71,2341.21 1452.87,2501.77 1424.86,2711.63C1389.82,2973.99 1434.01,3262.85 1501.85,3480.97C1569.69,3699.08 1659.7,3868.9 1736.4,4070.15C1813.1,4271.4 1878.95,4523.91 1877.9,4799.11C1877.12,5003.64 1839.84,5192.79 1797,5368.12C1791.04,5392.54 1784.99,5416.7 1778.86,5440.59C1728.97,5635.99 1673.82,5832.47 1658.14,6060.78C1642.11,6294.25 1678.09,6571.46 1765.82,6678.23" style="fill:none;stroke:white;stroke-width:1px;"/>
                            </g>
                        </g>
                        <g transform="matrix(1,0,0,1,-54.921,504.553)">
                            <g id="Group_1369">
                                <path id="Path_7640" d="M1312.42,-311.929C1315.97,-96.935 1318.73,118.242 1320.68,333.603C1321.89,466.579 1323.28,604.11 1346.03,723.153C1349.84,743.1 1354.13,762.114 1358.89,780.195C1397.14,926.508 1463.37,1016.85 1525.85,1105.95C1533.71,1117.17 1541.61,1128.76 1549.57,1140.72C1612.53,1235.63 1675.4,1354.25 1695.58,1527.38C1707.04,1625.76 1702.77,1725.45 1689.01,1821.11C1673.44,1929.82 1645.6,2032.97 1615.33,2122.54C1558.39,2290.68 1488.96,2447.1 1461.23,2654.74C1425.54,2921.92 1472.01,3216.5 1542.87,3437.42C1613.72,3658.34 1707.41,3828.95 1787.03,4032.3C1866.65,4235.64 1934.77,4492.33 1933.08,4772.75C1931.82,4981.15 1892.5,5173.65 1847.27,5351.87C1840.97,5376.69 1834.58,5401.24 1828.11,5425.52C1775.41,5624.07 1717.52,5824.05 1699.86,6056.86C1682.01,6292.19 1717.42,6572.71 1807.07,6676.12" style="fill:none;stroke:white;stroke-width:1px;"/>
                            </g>
                        </g>
                        <g transform="matrix(1,0,0,1,-108.472,514.458)">
                            <g id="Group_1370">
                                <path id="Path_7641" d="M1401.11,-326.017C1404.97,-120.832 1408.68,85.049 1412.24,291.624C1414.43,419.252 1417.02,551.739 1441.17,666.191C1477.91,840.263 1555.79,935.953 1626.69,1029.24C1697.6,1122.53 1773,1241.91 1792.78,1430.69C1811.16,1606.07 1775.94,1785.24 1733.65,1937.69C1725.38,1967.65 1716.8,1996.28 1708.14,2023.41C1683.53,2100.09 1657.29,2172.73 1633.61,2248.7C1606.24,2336.47 1582.84,2430 1569.84,2540.39C1567.37,2561.49 1565.32,2582.83 1563.69,2604.4C1553.15,2742.22 1558.64,2884.2 1576.47,3017.83C1591.87,3133.42 1616.37,3243.95 1645.58,3341.35C1710.16,3556.85 1796.4,3728.94 1874.56,3925.6C1879,3936.76 1883.4,3948.01 1887.79,3959.33C1937.41,4087.77 1983.61,4235.21 2010.86,4396.82C2028.36,4500.54 2038.02,4609.57 2036.63,4722.16C2033.64,4965.75 1979.45,5188.51 1923.91,5393.03C1868.34,5597.72 1808.46,5804.79 1788.68,6044.5C1768.91,6284.17 1802.24,6568.9 1890.88,6676.98" style="fill:none;stroke:white;stroke-width:1px;"/>
                            </g>
                        </g>
                        <g transform="matrix(1,0,0,1,-123.005,514.63)">
                            <g id="Group_1371">
                                <path id="Path_7642" d="M1464.61,-338.071C1469.61,-140.495 1474.32,58.461 1478.72,258.798C1481.41,382.509 1484.42,511.081 1508.07,622.498C1544.04,791.943 1619.36,886.543 1687.71,978.914C1756.07,1071.3 1829.22,1188.38 1847.11,1372.63C1864.27,1549.26 1825.79,1729.05 1786.39,1884.34C1778.65,1914.86 1770.87,1943.97 1763.04,1971.27C1740.88,2048.53 1717.85,2120.02 1697.14,2194.42C1673.19,2280.34 1653.34,2372.59 1642.05,2483.24C1639.92,2504.42 1638.13,2525.92 1636.68,2547.75C1627.26,2686.93 1630.18,2829.52 1645.35,2963.13C1657.8,3073.19 1678.49,3182.16 1707.25,3289.13C1766.5,3508.41 1848.06,3687.69 1924.86,3889.82C1929.23,3901.29 1933.57,3912.83 1937.88,3924.43C1986.85,4056.15 2033.49,4205.31 2060.43,4369.16C2078.44,4477.85 2086.65,4587.94 2084.97,4698.1C2080.95,4943.43 2026.01,5168.44 1970.43,5375.77C1914.8,5583.41 1855.66,5794.04 1835.76,6036.27C1815.87,6278.36 1847.7,6563.88 1933.41,6679.94" style="fill:none;stroke:white;stroke-width:1px;"/>
                            </g>
                        </g>
                        <g transform="matrix(1,0,0,1,-129.741,520.278)">
                            <g id="Group_1372">
                                <path id="Path_7643" d="M1528.07,-350.121C1534.22,-160.121 1539.92,31.949 1545.16,226.09C1548.37,345.913 1551.79,470.59 1574.94,578.99C1610.14,743.835 1682.9,837.359 1748.71,928.81C1814.51,1020.31 1885.35,1135.17 1901.41,1314.83C1917.33,1492.8 1875.68,1673.25 1839.1,1831.23C1831.9,1862.35 1824.88,1891.87 1817.9,1919.37C1798.16,1997.11 1778.37,2067.56 1760.64,2140.39C1740.11,2224.49 1723.81,2315.45 1714.24,2426.36C1712.44,2447.62 1710.91,2469.29 1709.64,2491.36C1701.33,2631.9 1701.69,2775.08 1714.2,2908.7C1724.55,3019.36 1742.82,3129.12 1768.88,3237.16C1822.81,3460.2 1899.68,3646.64 1975.13,3854.2C1979.41,3865.97 1983.68,3877.8 1987.95,3889.69C2036.25,4024.66 2083.32,4175.54 2109.95,4341.64C2127.67,4451.55 2135.48,4562.83 2133.28,4674.13C2128.23,4921.19 2072.53,5148.44 2016.92,5358.57C1961.22,5569.14 1902.83,5783.31 1882.8,6028.01C1862.79,6272.5 1893.12,6558.92 1975.91,6682.92" style="fill:none;stroke:white;stroke-width:1px;"/>
                            </g>
                        </g>
                        <g transform="matrix(1,0,0,1,-152.481,525.239)">
                            <g id="Group_1373">
                                <path id="Path_7644" d="M1591.51,-362.171C1598.8,-179.7 1605.57,5.9 1611.58,193.515C1615.29,309.469 1619.13,430.278 1641.77,535.671C1676.21,695.951 1746.42,788.396 1809.67,878.95C1872.93,969.556 1941.38,1082.31 1955.69,1257.32C1970.36,1436.71 1925.56,1617.77 1891.79,1778.39C1885.12,1810.11 1878.88,1840.03 1872.74,1867.74C1855.42,1945.95 1838.88,2015.37 1824.12,2086.64C1807.01,2168.93 1794.14,2258.57 1786.4,2369.79C1784.91,2391.13 1783.68,2412.97 1782.58,2435.29C1775.39,2577.18 1773.19,2720.96 1783.04,2854.58C1791.25,2965.84 1807.11,3076.41 1830.5,3185.49C1879.1,3412.28 1951.29,3605.84 2025.38,3818.8C2029.59,3830.86 2033.8,3842.98 2038,3855.16C2085.64,3993.38 2133.14,4145.95 2159.46,4314.28C2176.89,4425.4 2184.29,4537.87 2181.57,4650.32C2175.49,4899.12 2119.03,5128.6 2063.38,5341.5C2007.63,5555 1949.98,5772.69 1929.83,6019.83C1909.69,6266.78 1938.53,6553.99 2018.38,6685.88" style="fill:none;stroke:white;stroke-width:1px;"/>
                            </g>
                        </g>
                        <g transform="matrix(1,0,0,1,-175.251,530.202)">
                            <g id="Group_1374">
                                <path id="Path_7645" d="M1654.91,-374.225C1663.35,-199.232 1671.14,-20.344 1677.97,161.056C1682.18,273.169 1686.44,390.135 1708.58,492.545C1742.25,648.282 1809.9,739.664 1870.61,829.317C1931.32,919.038 1997.32,1029.76 2009.93,1200.1C2023.32,1380.98 1975.4,1562.55 1944.44,1725.81C1938.32,1758.12 1932.84,1788.42 1927.54,1816.35C1912.63,1895.01 1899.34,1963.43 1887.57,2033.15C1873.87,2113.62 1864.53,2202.01 1858.53,2313.48C1857.37,2334.91 1856.41,2356.91 1855.48,2379.47C1849.41,2522.72 1844.64,2667.08 1851.84,2800.7C1857.88,2912.58 1871.32,3023.95 1892.08,3134.06C1935.36,3364.57 2002.86,3565.22 2075.6,3783.54C2079.73,3795.91 2083.86,3808.32 2088.01,3820.77C2134.99,3962.22 2182.92,4116.49 2208.93,4287.04C2226.07,4399.37 2233.06,4513.03 2229.82,4626.61C2222.72,4877.13 2165.49,5108.83 2109.82,5324.49C2054,5540.9 1997.1,5762.09 1976.82,6011.68C1956.56,6261.01 1983.9,6549.11 2060.83,6688.85" style="fill:none;stroke:white;stroke-width:1px;"/>
                            </g>
                        </g>
                        <g transform="matrix(1,0,0,1,-198.055,535.165)">
                            <g id="Group_1375">
                                <path id="Path_7646" d="M1718.29,-386.279C1727.87,-218.721 1736.67,-46.504 1744.33,128.721C1749.05,237.01 1753.72,350.156 1775.36,449.607C1808.26,600.822 1873.36,691.15 1931.51,779.912C1989.67,868.748 2053.16,977.521 2064.14,1143.13C2076.24,1325.57 2025.22,1507.62 1997.07,1673.48C1991.48,1706.38 1986.77,1737.06 1982.33,1765.21C1969.83,1844.29 1959.79,1911.73 1950.99,1979.92C1940.71,2058.6 1934.9,2145.73 1930.63,2257.46C1929.81,2278.97 1929.11,2301.12 1928.36,2323.93C1923.4,2468.52 1916.07,2613.48 1920.61,2747.1C1924.47,2859.62 1935.5,2971.78 1953.63,3082.9C1991.59,3317.11 2054.4,3524.8 2125.8,3748.48C2129.84,3761.15 2133.91,3773.84 2138,3786.56C2184.33,3931.23 2232.69,4087.19 2258.38,4259.94C2275.23,4373.48 2281.82,4488.31 2278.05,4603.03C2269.92,4855.25 2211.93,5089.18 2156.22,5307.58C2100.34,5526.89 2044.19,5751.56 2023.78,6003.57C2003.4,6255.33 2029.24,6544.22 2103.24,6691.83" style="fill:none;stroke:white;stroke-width:1px;"/>
                            </g>
                        </g>
                        <g transform="matrix(1,0,0,1,-220.89,540.126)">
                            <g id="Group_1376">
                                <path id="Path_7647" d="M1781.64,-398.329C1792.36,-238.161 1802.18,-72.58 1810.66,96.515C1815.89,201.003 1820.97,310.353 1842.11,406.852C1874.25,553.585 1936.78,642.852 1992.38,730.732C2048,818.701 2108.91,925.592 2118.32,1086.45C2129.1,1270.51 2075.02,1452.99 2049.66,1621.41C2044.62,1654.91 2040.67,1685.96 2037.08,1714.33C2026.99,1793.82 2020.26,1860.34 2014.38,1926.96C2007.58,2003.9 2005.24,2089.75 2002.7,2201.74C2002.21,2223.33 2001.78,2245.64 2001.2,2268.7C1997.36,2414.62 1987.47,2560.17 1989.35,2693.79C1990.99,2806.96 1999.6,2919.92 2015.15,3032.03C2047.79,3269.92 2105.92,3484.62 2175.95,3713.61C2179.93,3726.58 2183.93,3739.56 2187.95,3752.56C2233.62,3900.42 2282.41,4058.06 2307.79,4233.01C2324.36,4347.75 2330.54,4463.75 2326.24,4579.6C2317.08,4833.53 2258.34,5069.66 2202.6,5290.8C2146.65,5512.99 2091.24,5741.13 2070.71,5995.56C2050.21,6249.69 2074.55,6539.47 2145.62,6694.78" style="fill:none;stroke:white;stroke-width:1px;"/>
                            </g>
                        </g>
                        <g transform="matrix(1,0,0,1,-243.756,545.09)">
                            <g id="Group_1377">
                                <path id="Path_7648" d="M1844.96,-410.384C1856.82,-257.564 1867.66,-98.576 1876.96,64.416C1882.69,165.132 1888.2,270.7 1908.83,364.275C1940.2,506.545 2000.18,594.775 2053.23,681.775C2106.29,768.875 2164.56,873.947 2172.47,1030.03C2181.89,1215.76 2124.78,1398.61 2102.23,1569.58C2097.73,1603.68 2094.54,1635.08 2091.79,1663.67C2084.11,1743.56 2080.65,1809.14 2077.73,1874.25C2074.37,1949.4 2075.55,2034.04 2074.73,2146.27C2074.57,2167.95 2074.41,2190.41 2074.02,2213.72C2071.29,2360.97 2058.84,2507.1 2058.05,2640.74C2057.45,2754.56 2063.66,2868.31 2076.65,2981.39C2103.96,3222.95 2157.39,3444.62 2226.08,3678.9C2229.97,3692.16 2233.91,3705.43 2237.88,3718.7C2282.89,3869.74 2332.11,4029.06 2357.17,4206.19C2373.46,4322.13 2379.23,4439.3 2374.41,4556.27C2364.22,4811.89 2304.72,5050.22 2248.94,5274.09C2192.93,5499.15 2138.27,5730.74 2117.61,5987.63C2096.98,6244.05 2119.83,6534.67 2187.97,6697.77" style="fill:none;stroke:white;stroke-width:1px;"/>
                            </g>
                        </g>
                        <g transform="matrix(1,0,0,1,-266.652,550.052)">
                            <g id="Group_1378">
                                <path id="Path_7649" d="M1908.25,-422.434C1921.26,-276.924 1933.1,-124.49 1943.23,32.433C1949.47,129.398 1955.39,231.215 1975.52,321.877C2006.12,459.712 2063.54,546.902 2114.05,633.03C2164.57,719.265 2220.13,822.584 2226.6,973.871C2234.62,1161.34 2174.54,1344.5 2154.76,1517.99C2150.81,1552.68 2148.38,1584.43 2146.49,1613.26C2141.2,1693.52 2141.01,1758.18 2141.07,1821.79C2141.12,1895.16 2145.83,1978.61 2146.75,2091.08C2146.93,2112.84 2147.03,2135.47 2146.81,2159.01C2145.2,2307.59 2130.18,2454.32 2126.74,2587.95C2123.86,2702.43 2127.66,2816.97 2138.11,2931.01C2160.1,3176.22 2208.85,3404.82 2276.18,3644.38C2280,3657.93 2283.86,3671.49 2287.78,3685.03C2332.12,3839.24 2381.78,4000.21 2406.53,4179.53C2422.54,4296.65 2427.9,4414.98 2422.55,4533.08C2411.33,4790.4 2351.07,5030.91 2295.26,5257.49C2239.19,5485.41 2185.26,5720.43 2164.49,5979.72C2143.74,6238.54 2165.09,6530 2230.3,6700.72" style="fill:none;stroke:white;stroke-width:1px;"/>
                            </g>
                        </g>
                        <g transform="matrix(1,0,0,1,-289.574,555.014)">
                            <g id="Group_1379">
                                <path id="Path_7650" d="M1971.5,-434.488C1985.65,-296.242 1998.51,-150.319 2009.46,0.57C2016.22,93.795 2022.55,191.886 2042.18,279.653C2072.01,413.078 2126.88,499.235 2174.83,584.491C2222.8,669.876 2275.6,771.491 2280.7,917.967C2287.28,1107.21 2224.26,1290.65 2207.27,1466.64C2203.86,1501.93 2202.19,1534.01 2201.14,1563.08C2198.25,1643.7 2201.34,1707.45 2204.36,1769.58C2207.84,1841.17 2216.09,1923.42 2218.72,2036.15C2219.24,2057.99 2219.6,2080.77 2219.57,2104.56C2219.07,2254.45 2201.49,2401.76 2195.39,2535.41C2189.96,2651.38 2191.89,2768.88 2199.54,2880.87C2216.21,3129.71 2260.28,3365.21 2326.25,3610C2329.98,3623.85 2333.78,3637.68 2337.64,3651.5C2381.33,3808.85 2431.41,3971.49 2455.85,4152.97C2471.55,4269.73 2476.43,4389.06 2470.65,4509.97C2458.41,4768.98 2397.39,5011.67 2341.54,5240.95C2285.41,5471.71 2232.23,5710.15 2211.32,5971.83C2190.45,6232.98 2210.3,6525.28 2272.59,6703.69" style="fill:none;stroke:white;stroke-width:1px;"/>
                            </g>
                        </g>
                        <g transform="matrix(1,0,0,1,-312.528,559.976)">
                            <g id="Group_1380">
                                <path id="Path_7651" d="M2034.74,-446.538C2050.03,-315.514 2063.9,-176.076 2075.68,-31.184C2082.94,58.339 2089.69,152.716 2108.81,237.604C2137.88,366.646 2190.18,451.776 2235.59,536.172C2281.01,620.708 2330.98,720.666 2334.76,862.323C2339.86,1053.38 2273.97,1237.06 2259.75,1415.53C2256.89,1451.41 2255.96,1483.83 2255.78,1513.14C2255.26,1594.12 2261.64,1656.96 2267.64,1717.62C2274.53,1787.45 2286.32,1868.53 2290.68,1981.49C2291.53,2003.43 2292.18,2026.35 2292.3,2050.39C2293.05,2201.59 2272.77,2349.49 2264.02,2483.14C2256.28,2599.17 2255.69,2717.42 2260.95,2830.99C2272.29,3083.46 2311.68,3325.82 2376.3,3575.83C2379.96,3589.96 2383.69,3604.08 2387.48,3618.17C2430.51,3778.64 2481.03,3942.94 2505.15,4126.58C2520.66,4244.76 2525.01,4365.2 2518.73,4487.03C2505.46,4747.71 2443.68,4992.58 2387.81,5224.54C2331.61,5458.13 2279.18,5699.98 2258.14,5964.03C2237.15,6227.56 2255.5,6520.64 2314.86,6706.66" style="fill:none;stroke:white;stroke-width:1px;"/>
                            </g>
                        </g>
                        <g transform="matrix(1,0,0,1,-335.509,564.939)">
                            <g id="Group_1381">
                                <path id="Path_7652" d="M2097.94,-458.592C2114.38,-334.75 2129.27,-201.755 2141.86,-62.822C2149.63,23 2156.8,113.7 2175.42,195.723C2203.72,320.405 2253.46,404.517 2296.32,488.056C2339.2,571.747 2386.28,670.086 2388.8,806.923C2392.36,999.831 2323.66,1183.7 2312.2,1364.65C2309.89,1401.11 2309.71,1433.87 2310.38,1463.41C2312.24,1544.75 2321.91,1606.7 2330.88,1665.89C2341.2,1733.96 2356.53,1813.87 2362.61,1927.08C2363.79,1949.1 2364.71,1972.18 2365.01,1996.45C2366.88,2148.96 2344.03,2297.43 2332.62,2431.11C2322.56,2547.18 2319.47,2666.19 2322.34,2781.34C2328.36,3037.4 2363.05,3286.6 2426.31,3541.79C2429.9,3556.22 2433.56,3570.62 2437.3,3584.97C2479.67,3748.56 2530.62,3914.5 2554.43,4100.29C2569.73,4219.87 2573.55,4341.44 2566.79,4464.16C2552.49,4726.52 2489.95,4973.54 2434.04,5208.18C2377.78,5444.59 2326.09,5689.82 2304.94,5956.24C2283.83,6222.09 2300.68,6516.05 2357.11,6709.64" style="fill:none;stroke:white;stroke-width:1px;"/>
                            </g>
                        </g>
                        <g transform="matrix(1,0,0,1,-358.518,569.902)">
                            <g id="Group_1382">
                                <path id="Path_7653" d="M2161.11,-470.646C2178.7,-353.94 2194.6,-227.351 2208.02,-94.355C2216.29,-12.195 2223.88,74.825 2242,154.012C2269.53,274.361 2316.72,357.464 2357.03,440.149C2397.35,523.001 2441.48,619.749 2442.81,751.777C2444.78,946.559 2373.33,1130.6 2364.62,1314C2362.86,1351.06 2363.42,1384.14 2364.96,1413.91C2369.18,1495.61 2382.14,1556.67 2394.09,1614.41C2407.82,1680.74 2426.71,1759.48 2434.5,1872.93C2436.02,1895.04 2437.18,1918.26 2437.68,1942.78C2440.53,2096.6 2415.26,2245.64 2401.18,2379.33C2388.81,2495.46 2383.21,2615.22 2383.68,2731.93C2384.38,2991.58 2414.38,3247.58 2476.29,3507.93C2479.8,3522.64 2483.39,3537.32 2487.07,3551.95C2528.78,3718.64 2580.16,3886.21 2603.66,4074.14C2618.76,4195.13 2622.05,4317.8 2614.8,4441.43C2599.47,4705.46 2536.18,4954.63 2480.23,5191.93C2423.91,5431.14 2372.97,5679.75 2351.68,5948.58C2330.45,6216.73 2345.8,6511.47 2399.3,6712.58" style="fill:none;stroke:white;stroke-width:1px;"/>
                            </g>
                        </g>
                        <g transform="matrix(1,0,0,1,-381.552,574.863)">
                            <g id="Group_1383">
                                <path id="Path_7654" d="M2224.26,-482.7C2242.99,-373.1 2259.91,-252.885 2274.15,-125.781C2282.93,-47.272 2290.93,36.1 2308.55,112.459C2335.32,228.498 2379.95,310.595 2417.71,392.435C2455.48,474.454 2496.61,569.644 2496.8,696.87C2497.1,893.54 2422.98,1077.72 2417.02,1263.57C2415.95,1297.28 2416.78,1331.02 2419.51,1364.63C2426.09,1446.68 2442.35,1506.86 2457.29,1563.14C2474.43,1627.75 2496.88,1705.32 2506.38,1819.02C2508.23,1841.21 2509.65,1864.59 2510.33,1889.34C2514.3,2044.46 2486.46,2194.09 2469.73,2327.79C2455.04,2443.97 2446.93,2564.48 2445.01,2682.76C2440.38,2945.97 2465.7,3208.73 2526.26,3474.22C2529.69,3489.22 2533.21,3504.17 2536.83,3519.07C2577.89,3688.85 2629.7,3858.05 2652.88,4048.11C2667.79,4170.49 2670.55,4294.27 2662.81,4418.8C2646.45,4684.48 2582.39,4935.8 2526.42,5175.75C2470.03,5417.76 2419.84,5669.71 2398.42,5940.9C2377.06,6211.34 2390.92,6506.97 2441.49,6715.57" style="fill:none;stroke:white;stroke-width:1px;"/>
                            </g>
                        </g>
                        <g transform="matrix(1,0,0,1,-404.616,579.824)">
                            <g id="Group_1384">
                                <path id="Path_7655" d="M2287.39,-494.746C2307.26,-392.222 2325.19,-278.335 2340.26,-157.096C2349.54,-82.212 2357.96,-2.46 2375.07,71.079C2401.07,182.833 2443.14,263.929 2478.36,344.931C2513.59,426.116 2551.64,519.766 2550.76,642.211C2549.33,840.774 2472.61,1025.09 2469.39,1213.37C2468.79,1247.5 2470.34,1281.64 2474.03,1315.58C2482.96,1398 2502.53,1457.29 2520.45,1512.13C2541,1575.02 2567.01,1651.42 2578.22,1765.38C2580.41,1787.65 2582.09,1811.18 2582.95,1836.17C2588.03,1992.58 2557.64,2142.78 2538.24,2276.5C2521.24,2392.74 2510.63,2513.99 2506.31,2633.83C2496.36,2900.59 2516.99,3170.08 2576.2,3440.7C2579.55,3455.98 2583.01,3471.2 2586.57,3486.37C2626.95,3659.22 2679.2,3830.05 2702.07,4022.22C2716.78,4145.99 2719.01,4270.88 2710.78,4396.29C2693.4,4663.65 2628.58,4917.09 2572.57,5159.68C2516.12,5404.47 2466.67,5659.77 2445.13,5933.29C2423.65,6206.07 2436.01,6502.48 2483.65,6718.52" style="fill:none;stroke:white;stroke-width:1px;"/>
                            </g>
                        </g>
                        <g transform="matrix(1,0,0,1,-427.703,584.787)">
                            <g id="Group_1385">
                                <path id="Path_7656" d="M2350.49,-506.8C2371.5,-411.3 2390.45,-303.716 2406.34,-188.3C2416.13,-117.027 2424.97,-40.888 2441.57,29.859C2466.8,137.351 2506.32,217.453 2538.99,297.621C2571.66,377.989 2606.6,470.095 2604.69,587.785C2601.44,788.237 2522.22,972.685 2521.74,1163.39C2521.61,1197.95 2523.88,1232.49 2528.53,1266.74C2539.8,1349.54 2562.68,1407.95 2583.58,1461.33C2607.55,1522.53 2637.12,1597.76 2650.04,1711.97C2652.57,1734.32 2654.51,1758.01 2655.54,1783.23C2661.74,1940.93 2628.78,2091.71 2606.73,2225.44C2587.42,2341.72 2574.29,2463.74 2567.58,2585.12C2552.3,2855.41 2568.25,3131.6 2626.1,3407.31C2629.38,3422.86 2632.76,3438.36 2636.27,3453.8C2676,3629.7 2728.68,3802.15 2751.23,3996.43C2765.75,4121.59 2767.43,4247.57 2758.72,4373.88C2740.31,4642.88 2674.74,4898.44 2618.69,5143.67C2562.18,5391.22 2513.47,5649.86 2491.81,5925.7C2470.21,6200.76 2481.07,6498.05 2525.78,6721.51" style="fill:none;stroke:white;stroke-width:1px;"/>
                            </g>
                        </g>
                        <g transform="matrix(1,0,0,1,-450.818,589.749)">
                            <g id="Group_1386">
                                <path id="Path_7657" d="M2413.56,-518.85C2435.72,-430.339 2455.68,-329.02 2472.39,-219.415C2482.69,-151.727 2491.95,-79.175 2508.05,-11.215C2532.51,92.039 2569.47,171.158 2599.59,250.493C2629.72,330.038 2661.49,420.616 2658.6,533.582C2653.43,735.905 2571.81,920.489 2574.06,1113.62C2574.39,1148.62 2577.39,1183.55 2583.01,1218.1C2596.62,1301.28 2622.77,1358.92 2646.7,1410.75C2674.02,1470.4 2707.21,1544.33 2721.83,1658.79C2724.7,1681.22 2726.91,1705.07 2728.12,1730.53C2735.43,1889.51 2699.91,2040.86 2675.19,2174.61C2653.57,2290.95 2637.93,2413.7 2628.83,2536.63C2608.22,2810.44 2619.49,3093.3 2675.99,3374.07C2679.18,3389.91 2682.5,3405.68 2685.95,3421.38C2725.02,3600.33 2778.13,3774.39 2800.37,3970.78C2814.68,4097.32 2815.85,4224.38 2806.64,4351.58C2787.2,4622.23 2720.87,4879.91 2664.79,5127.75C2608.22,5378.07 2560.25,5640.01 2538.47,5918.17C2516.74,6195.5 2526.11,6493.61 2567.89,6724.45" style="fill:none;stroke:white;stroke-width:1px;"/>
                            </g>
                        </g>
                        <g transform="matrix(1,0,0,1,-473.957,594.713)">
                            <g id="Group_1387">
                                <path id="Path_7658" d="M2476.61,-530.9C2499.91,-449.339 2520.89,-354.254 2538.42,-250.414C2549.23,-186.298 2558.9,-117.314 2574.5,-52.114C2598.2,46.924 2632.6,125.061 2660.16,203.573C2687.75,282.311 2716.3,371.348 2712.49,479.632C2705.31,683.79 2621.38,868.532 2626.36,1064.08C2627.16,1099.52 2630.87,1134.85 2637.46,1169.68C2653.4,1253.26 2682.88,1310.01 2709.79,1360.41C2740.53,1418.38 2777.28,1491.15 2793.61,1605.87C2796.8,1628.38 2799.28,1652.37 2800.66,1678.07C2809.1,1838.33 2771.01,1990.25 2743.64,2124.02C2719.7,2240.42 2701.55,2363.91 2690.05,2488.37C2664.13,2765.69 2670.7,3055.18 2725.85,3341C2728.97,3357.12 2732.22,3373.16 2735.61,3389.12C2774.02,3571.1 2827.56,3746.76 2849.49,3945.24C2863.61,4073.16 2864.24,4201.31 2854.55,4329.39C2834.08,4601.67 2766.99,4861.47 2710.88,5111.91C2654.24,5364.97 2607.02,5630.21 2585.11,5910.74C2563.26,6190.32 2571.13,6489.27 2609.98,6727.45" style="fill:none;stroke:white;stroke-width:1px;"/>
                            </g>
                        </g>
                        <g transform="matrix(1,0,0,1,-497.121,599.674)">
                            <g id="Group_1388">
                                <path id="Path_7659" d="M2539.64,-542.955C2564.08,-468.308 2586.07,-379.428 2604.43,-281.327C2615.75,-220.758 2625.84,-155.322 2640.93,-92.877C2663.86,1.969 2695.71,79.13 2720.73,156.823C2745.76,234.748 2771.04,322.236 2766.35,425.886C2757.04,631.829 2670.94,816.77 2678.64,1014.73C2679.9,1050.63 2684.34,1086.35 2691.89,1121.46C2710.18,1205.45 2742.98,1261.3 2772.86,1310.26C2807.02,1366.58 2847.33,1438.19 2865.36,1553.16C2868.9,1575.75 2871.63,1599.89 2873.19,1625.83C2882.74,1787.36 2842.09,1939.85 2812.06,2073.65C2785.81,2190.1 2765.16,2314.33 2751.26,2440.32C2720.02,2721.12 2721.91,3017.22 2775.7,3308.06C2778.74,3324.46 2781.92,3340.77 2785.25,3356.99C2823,3541.99 2876.98,3719.25 2898.59,3919.82C2912.51,4049.1 2912.61,4178.34 2902.43,4307.3C2880.93,4581.21 2813.08,4843.11 2756.94,5096.14C2700.24,5351.94 2653.76,5620.46 2631.72,5903.29C2609.76,6185.13 2616.12,6484.89 2652.05,6730.39" style="fill:none;stroke:white;stroke-width:1px;"/>
                            </g>
                        </g>
                        <g transform="matrix(1,0,0,1,-520.313,604.637)">
                            <g id="Group_1389">
                                <path id="Path_7660" d="M2602.64,-555.009C2628.23,-487.239 2651.24,-404.528 2670.42,-312.129C2682.24,-255.094 2692.74,-193.188 2707.34,-133.487C2729.5,-42.805 2758.79,33.384 2781.26,110.265C2803.74,187.387 2825.71,273.302 2820.19,372.371C2808.63,580.03 2720.48,765.222 2730.89,965.591C2732.61,1001.95 2737.77,1038.06 2746.3,1073.44C2766.91,1157.85 2803.05,1212.79 2835.91,1260.34C2873.48,1315 2917.36,1385.45 2937.09,1500.69C2941.21,1524.9 2944.09,1549.31 2945.7,1573.82C2956.37,1736.62 2913.14,1889.69 2880.46,2023.5C2851.89,2140.02 2828.73,2264.98 2812.44,2392.49C2775.87,2676.77 2773.07,2979.44 2825.51,3275.27C2828.47,3291.95 2831.59,3308.54 2834.86,3325.01C2871.95,3513.01 2926.36,3691.87 2947.66,3894.51C2961.38,4025.15 2960.94,4155.47 2950.27,4285.31C2927.75,4560.85 2859.14,4824.84 2802.96,5080.46C2746.2,5338.98 2700.46,5610.77 2678.3,5895.9C2656.22,6180.03 2661.09,6480.62 2694.08,6733.38" style="fill:none;stroke:white;stroke-width:1px;"/>
                            </g>
                        </g>
                        <g transform="matrix(1,0,0,1,-538.373,609.598)">
                            <g id="Group_1390">
                                <path id="Path_7661" d="M2654.03,-567.059C2680.76,-506.137 2704.78,-429.559 2724.79,-342.841C2737.12,-289.316 2748.04,-230.926 2762.13,-173.941C2783.52,-87.407 2810.25,-12.183 2830.17,63.89C2850.11,140.214 2868.72,224.521 2862.42,319.076C2848.45,528.352 2758.4,713.889 2771.52,916.654C2774.21,958.296 2780.56,994.127 2789.08,1025.62C2812.03,1110.46 2851.5,1164.5 2887.33,1210.63C2928.32,1263.64 2975.76,1332.93 2997.19,1448.45C3001.68,1472.79 3004.82,1497.35 3006.58,1522.04C3018.36,1686.1 2972.58,1839.74 2937.23,1973.58C2906.36,2090.15 2880.69,2215.84 2862,2344.87C2820.1,2632.61 2812.62,2941.81 2863.7,3242.62C2866.59,3259.59 2869.64,3276.43 2872.85,3293.17C2909.28,3484.16 2964.12,3664.6 2985.11,3869.31C2998.63,4001.3 2997.66,4132.7 2986.51,4263.41C2962.96,4540.57 2893.59,4806.64 2837.38,5064.84C2780.55,5326.07 2735.57,5601.12 2713.28,5888.53C2691.07,6174.9 2694.44,6476.31 2724.5,6736.36" style="fill:none;stroke:white;stroke-width:1px;"/>
                            </g>
                        </g>
                        <g transform="matrix(1,0,0,1,-552.275,614.561)">
                            <g id="Group_1391">
                                <path id="Path_7662" d="M2696.09,-579.113C2723.97,-524.997 2749,-454.524 2769.83,-373.453C2782.67,-323.419 2794.01,-268.522 2807.59,-214.247C2828.22,-131.839 2852.39,-57.568 2869.76,17.696C2887.15,93.228 2902.37,175.887 2895.32,265.996C2878.8,476.774 2787,662.76 2802.83,867.929C2806.09,910.129 2813.15,946.315 2822.55,978.012C2847.83,1063.28 2890.63,1116.4 2929.44,1161.13C2973.85,1212.51 3024.95,1280.55 3047.98,1396.43C3052.84,1420.89 3056.24,1445.62 3058.14,1470.49C3071.04,1635.8 3022.7,1790.01 2984.69,1923.88C2951.5,2040.51 2923.32,2166.93 2902.24,2297.47C2855.02,2588.65 2842.85,2904.38 2892.58,3210.14C2895.39,3227.37 2898.37,3244.49 2901.52,3261.49C2937.3,3455.45 2992.57,3637.47 3013.24,3844.24C3026.57,3977.58 3025.07,4110.05 3013.42,4241.63C2988.84,4520.41 2918.71,4788.56 2862.47,5049.32C2805.58,5313.26 2761.34,5591.54 2738.92,5881.23C2716.59,6169.87 2718.47,6472.11 2745.6,6739.31" style="fill:none;stroke:white;stroke-width:1px;"/>
                            </g>
                        </g>
                        <g transform="matrix(1,0,0,1,-566.149,619.522)">
                            <g id="Group_1392">
                                <path id="Path_7663" d="M2738.15,-591.163C2767.17,-543.824 2793.22,-479.418 2814.87,-403.963C2828.22,-357.408 2839.97,-305.985 2853.05,-254.405C2872.91,-176.105 2894.53,-102.79 2909.35,-28.318C2924.19,46.425 2935.99,127.382 2928.21,213.142C2908.98,425.26 2815.61,611.83 2834.14,819.402C2837.96,862.147 2845.74,898.702 2856.01,930.586C2883.63,1016.3 2929.76,1068.51 2971.54,1111.84C3019.37,1161.59 3074.02,1228.5 3098.76,1344.64C3103.99,1369.22 3107.64,1394.1 3109.71,1419.14C3123.72,1585.72 3072.81,1740.49 3032.15,1874.38C2996.64,1991.08 2965.95,2118.23 2942.48,2250.27C2889.93,2544.88 2873.08,2867.09 2921.45,3177.78C2924.19,3195.29 2927.1,3212.67 2930.19,3229.92C2965.31,3426.85 3021.01,3610.45 3041.37,3819.27C3054.49,3953.95 3052.47,4087.49 3040.33,4219.94C3014.72,4500.33 2943.83,4770.55 2887.56,5033.86C2830.6,5300.48 2787.11,5582 2764.57,5874C2742.11,6164.81 2742.49,6467.86 2766.69,6742.28" style="fill:none;stroke:white;stroke-width:1px;"/>
                            </g>
                        </g>
                        <g transform="matrix(1,0,0,1,-577.008,624.485)">
                            <g id="Group_1393">
                                <path id="Path_7664" d="M2781.25,-603.217C2811.41,-562.61 2838.47,-504.25 2860.95,-434.39C2874.8,-391.295 2886.97,-343.325 2899.55,-294.425C2918.64,-220.204 2937.7,-147.835 2949.97,-74.163C2962.26,-0.2 2970.6,79 2962.14,160.489C2939.99,373.762 2845.41,561.009 2866.48,771.068C2870.89,814.342 2879.36,851.284 2890.5,883.355C2920.45,969.522 2969.91,1020.81 3014.67,1062.75C3065.91,1110.88 3124.12,1176.66 3150.58,1293.06C3156.16,1317.76 3160.08,1342.8 3162.3,1368.03C3177.43,1535.85 3123.95,1691.19 3080.63,1825.11C3042.81,1941.86 3009.61,2069.74 2983.74,2203.28C2925.88,2501.31 2904.33,2829.97 2951.36,3145.57C2954.01,3163.35 2956.85,3181 2959.89,3198.51C2994.35,3398.39 3050.48,3583.55 3070.53,3794.41C3083.45,3930.43 3080.89,4065.04 3068.27,4198.35C3041.63,4480.35 2969.99,4752.63 2913.67,5018.49C2856.66,5287.79 2813.9,5572.53 2791.24,5866.79C2768.66,6159.86 2767.54,6463.69 2788.82,6745.24" style="fill:none;stroke:white;stroke-width:1px;"/>
                            </g>
                        </g>
                        <g transform="matrix(1,0,0,1,-583.855,629.447)">
                            <g id="Group_1394">
                                <path id="Path_7665" d="M2825.71,-615.267C2857.02,-581.367 2885.1,-529.02 2908.4,-464.717C2922.76,-425.066 2935.34,-380.54 2947.42,-334.301C2965.74,-264.142 2982.24,-192.716 2991.96,-119.838C3001.71,-46.651 3006.56,30.712 2997.44,108.048C2972.18,322.248 2876.37,510.496 2900.19,722.928C2905.16,766.75 2914.33,804.099 2926.37,836.313C2958.59,923.047 3011.44,973.299 3059.17,1013.86C3113.84,1060.38 3175.58,1125.03 3203.76,1241.69C3209.7,1266.51 3213.88,1291.71 3216.26,1317.12C3232.51,1486.19 3176.47,1642.08 3130.49,1776.04C3090.35,1892.85 3054.64,2021.46 3026.38,2156.48C2963.19,2457.91 2936.96,2793 2982.63,3113.49C2985.21,3131.55 2987.98,3149.45 2990.96,3167.22C3024.76,3370.04 3081.32,3556.76 3101.06,3769.66C3113.79,3907.01 3110.69,4042.67 3097.58,4176.85C3069.92,4460.45 2997.51,4734.78 2941.17,5003.18C2882.07,5285.71 2841.36,5571.79 2819.29,5859.59C2796.59,6154.86 2793.98,6459.56 2812.32,6748.22" style="fill:none;stroke:white;stroke-width:1px;"/>
                            </g>
                        </g>
                        <g transform="matrix(1,0,0,1,-590.533,634.41)">
                            <g id="Group_1395">
                                <path id="Path_7666" d="M2870.2,-627.321C2902.65,-600.093 2931.74,-553.721 2955.87,-494.956C2970.73,-458.725 2983.73,-417.621 2995.31,-374.041C3012.86,-307.918 3026.81,-237.429 3033.98,-165.335C3041.18,-92.922 3042.52,-17.484 3032.76,55.815C3004.16,270.648 2907.35,460.182 2933.93,674.983C2939.44,719.357 2949.35,757.041 2962.26,789.457C2996.85,876.6 3053,925.981 3103.7,965.168C3161.78,1010.09 3227.08,1073.62 3256.97,1190.54C3263.28,1215.47 3267.71,1240.84 3270.24,1266.43C3287.61,1436.73 3229.01,1593.19 3180.37,1727.18C3137.92,1844.06 3099.7,1973.38 3069.04,2109.89C3000.53,2414.71 2969.61,2756.19 3013.93,3081.56C3016.43,3099.89 3019.14,3118.06 3022.05,3136.07C3055.2,3341.81 3112.19,3530.09 3131.61,3745.02C3144.14,3883.7 3140.51,4020.42 3126.92,4155.45C3098.23,4440.65 3025.06,4717.04 2968.68,4987.95C2911.55,5262.58 2870.28,5553.7 2847.36,5852.45C2824.55,6149.92 2820.43,6455.43 2835.85,6751.17" style="fill:none;stroke:white;stroke-width:1px;"/>
                            </g>
                        </g>
                        <g transform="matrix(1,0,0,1,-597.018,639.371)">
                            <g id="Group_1396">
                                <path id="Path_7667" d="M2914.72,-639.371C3031.96,-567.518 3106.7,-254.171 3068.12,3.786C3035.95,218.914 2938.36,410.066 2967.7,627.22C2990.05,792.682 3074.58,864.756 3148.27,916.664C3221.95,968.572 3306.17,1047.89 3324.27,1215.93C3342.74,1387.47 3281.58,1544.5 3230.28,1678.51C3085.54,2056.65 2983.07,2571.69 3045.27,3049.74C3075.31,3280.64 3141.42,3484.52 3162.2,3720.47C3200.56,4155.96 3079.37,4569.78 2996.24,4972.78C2882.08,5526.12 2834.37,6147.26 2859.41,6754.15" style="fill:none;stroke:white;stroke-width:1px;"/>
                            </g>
                        </g>
                        <g transform="matrix(1,0,0,1,-603.456,636.506)">
                            <g id="Group_1397">
                                <path id="Path_7668" d="M2967.6,-632.413C3076.43,-558.82 3144.59,-250.762 3105.36,6.528C3072.79,220.437 2978.43,412.922 3007.86,629.04C3017.32,698.511 3037.61,751.817 3063.45,794.18C3098.86,852.292 3144.61,889.666 3186.94,920.352C3255.92,970.307 3334.12,1043.18 3359.07,1190.21C3360.59,1199.17 3361.91,1208.41 3363.02,1217.92C3382.76,1387.18 3325.1,1543.96 3276.13,1678.88C3225.67,1818.06 3179.76,1975.13 3144.05,2140.57C3085.63,2411.27 3055.29,2703.9 3081.56,2988.55C3083.16,3005.87 3084.97,3023.16 3086.99,3040.43C3113.84,3269.42 3176.55,3473.98 3196.74,3709.29C3214.91,3920.99 3197.41,4127.63 3166.33,4329.21C3133.76,4541.1 3085.23,4746.78 3045.99,4954.09C3031.03,5033.16 3016.52,5114.54 3002.25,5195.3C2987.97,5276.12 2974.36,5356.91 2962.03,5438.46C2925.51,5679.99 2899.99,5928.82 2885.91,6179.54C2880.47,6276.26 2876.61,6373.68 2876.05,6472.88C2875.48,6571 2879.01,6671.28 2885.81,6763.47" style="fill:none;stroke:white;stroke-width:1px;"/>
                            </g>
                        </g>
                        <g transform="matrix(1,0,0,1,-609.736,633.642)">
                            <g id="Group_1398">
                                <path id="Path_7669" d="M3020.44,-625.455C3120.86,-550.124 3182.44,-247.349 3142.54,9.271C3109.59,221.971 3018.46,415.778 3047.99,630.854C3057.47,699.948 3077.53,753.354 3103.09,796C3138.19,854.645 3183.48,892.661 3225.58,924.041C3294.09,975.016 3371.68,1047.5 3397.59,1192.58C3399.16,1201.41 3400.54,1210.53 3401.73,1219.91C3422.73,1386.89 3368.56,1543.42 3321.93,1679.26C3273.88,1819.46 3229.3,1977.21 3193.51,2141.9C3135.02,2411.1 3101.54,2697.9 3123.96,2979.7C3125.32,2996.86 3126.89,3013.99 3128.67,3031.11C3152.33,3258.2 3211.63,3463.44 3231.23,3698.1C3248.87,3909.08 3233.12,4115.07 3205.23,4314.86C3176.09,4525.07 3131.7,4727.4 3095.7,4935.38C3081.55,5017.17 3067.03,5102.12 3051.7,5184.84C3036.37,5267.62 3021.09,5349.25 3007.06,5431.54C2965.53,5675.31 2934.58,5926.03 2914.61,6178.59C2906.91,6276.03 2900.6,6374.54 2899.08,6476.66C2897.56,6577.76 2902.47,6683.17 2912.17,6772.8" style="fill:none;stroke:white;stroke-width:1px;"/>
                            </g>
                        </g>
                        <g transform="matrix(1,0,0,1,-615.925,630.775)">
                            <g id="Group_1399">
                                <path id="Path_7670" d="M3073.22,-618.492C3165.23,-541.429 3220.22,-243.938 3179.68,12.019C3146.33,223.5 3058.43,418.64 3088.06,632.676C3097.56,701.394 3117.39,754.907 3142.68,797.835C3177.46,857.002 3222.29,895.66 3264.16,927.735C3332.2,979.73 3409.18,1051.83 3436.05,1194.96C3437.68,1203.67 3439.13,1212.66 3440.38,1221.91C3462.64,1386.61 3411.97,1542.9 3367.68,1679.65C3322.04,1820.88 3278.79,1979.31 3242.91,2143.23C3184.36,2410.94 3147.75,2691.92 3166.3,2970.89C3167.42,2987.87 3168.76,3004.85 3170.3,3021.83C3190.77,3247 3246.66,3452.94 3265.67,3686.95C3282.77,3897.19 3268.77,4102.53 3244.08,4300.54C3218.36,4509.08 3178.2,4708.27 3145.36,4916.73C3132.04,5001.3 3117.49,5089.75 3101.11,5174.43C3084.72,5259.15 3067.77,5341.62 3052.05,5424.66C3005.5,5670.61 2969.11,5923.29 2943.27,6177.69C2933.3,6275.84 2924.53,6375.4 2922.07,6480.44C2919.59,6584.52 2925.89,6695.11 2938.47,6782.11" style="fill:none;stroke:white;stroke-width:1px;"/>
                            </g>
                        </g>
                        <g transform="matrix(1,0,0,1,-622.028,627.911)">
                            <g id="Group_1400">
                                <path id="Path_7671" d="M3125.92,-611.538C3209.52,-532.728 3257.93,-240.519 3216.73,14.769C3182.99,225.036 3098.32,421.509 3128.04,634.504C3137.57,702.835 3157.17,756.456 3182.19,799.669C3216.65,859.356 3261.03,898.662 3302.65,931.422C3370.23,984.441 3446.6,1056.14 3474.43,1197.33C3476.12,1205.93 3477.63,1214.79 3478.95,1223.91C3502.46,1386.33 3455.3,1542.37 3413.34,1680.02C3370.11,1822.3 3328.19,1981.39 3292.23,2144.56C3233.6,2410.76 3193.87,2685.93 3208.55,2962.06C3209.44,2978.88 3210.54,2995.71 3211.84,3012.53C3229.11,3235.8 3281.61,3442.43 3300.02,3675.79C3316.58,3885.3 3304.33,4090 3282.83,4286.21C3260.55,4493.09 3224.71,4689.31 3194.93,4898.06C3182.46,4985.49 3167.85,5077.36 3150.42,5163.99C3132.99,5250.68 3114.35,5333.99 3096.94,5417.77C3045.38,5665.95 3003.55,5920.52 2971.83,6176.76C2959.59,6275.63 2948.38,6376.27 2944.95,6484.24C2941.53,6591.29 2949.21,6706.95 2964.69,6791.45" style="fill:none;stroke:white;stroke-width:1px;"/>
                            </g>
                        </g>
                        <g transform="matrix(1,0,0,1,-628.042,625.045)">
                            <g id="Group_1401">
                                <path id="Path_7672" d="M3178.53,-604.576C3253.72,-524.037 3295.55,-237.098 3253.69,17.524C3219.56,226.576 3138.12,424.373 3167.94,636.33C3177.49,704.285 3196.86,758.005 3221.61,801.503C3255.75,861.716 3299.68,901.663 3341.06,935.116C3408.17,989.153 3483.93,1060.47 3512.72,1199.72C3514.47,1208.19 3516.04,1216.93 3517.43,1225.92C3542.2,1386.06 3498.54,1541.87 3458.91,1680.42C3418.1,1823.72 3377.5,1983.5 3341.46,2145.91C3282.76,2410.62 3239.89,2679.98 3250.72,2953.27C3251.37,2969.93 3252.23,2986.59 3253.29,3003.27C3267.37,3224.63 3316.46,3431.95 3334.28,3664.67C3350.31,3873.45 3339.6,4077.4 3321.51,4271.93C3302.43,4477.04 3271.24,4670.55 3244.42,4879.44C3232.82,4969.78 3218.13,5065.02 3199.65,5153.6C3181.16,5242.24 3160.85,5326.4 3141.75,5410.92C3085.17,5661.27 3037.91,5917.79 3000.31,6175.87C2985.8,6275.45 2972.13,6377.19 2967.76,6488.07C2963.37,6598.04 2972.45,6718.87 2990.82,6800.76" style="fill:none;stroke:white;stroke-width:1px;"/>
                            </g>
                        </g>
                        <g transform="matrix(1,0,0,1,-633.963,622.18)">
                            <g id="Group_1402">
                                <path id="Path_7673" d="M3231.04,-597.617C3297.82,-515.345 3333.07,-233.679 3290.56,20.283C3256.03,228.126 3177.82,427.245 3207.74,638.169C3217.32,705.743 3236.45,759.569 3260.94,803.348C3294.75,864.087 3338.22,904.674 3379.37,938.814C3446.01,993.874 3521.16,1064.8 3550.91,1202.1C3552.72,1210.45 3554.35,1219.07 3555.81,1227.93C3581.85,1385.79 3541.68,1541.35 3504.38,1680.81C3465.98,1825.15 3426.72,1985.59 3390.59,2147.25C3331.83,2410.46 3285.83,2674.02 3292.79,2944.47C3293.2,2960.96 3293.82,2977.48 3294.64,2994.01C3305.53,3213.46 3351.22,3421.47 3368.44,3653.54C3383.94,3861.59 3374.94,4064.91 3360.09,4257.64C3344.39,4461.09 3317.77,4651.92 3293.8,4860.82C3283.1,4954.12 3268.31,5052.67 3248.78,5143.2C3229.24,5233.79 3207.26,5318.78 3186.46,5404.05C3124.87,5656.63 3072.16,5915.04 3028.69,6174.96C3011.91,6275.26 2995.8,6378.03 2990.46,6491.83C2985.13,6604.77 2995.6,6730.77 3016.85,6810.1" style="fill:none;stroke:white;stroke-width:1px;"/>
                            </g>
                        </g>
                        <g transform="matrix(1,0,0,1,-639.786,619.315)">
                            <g id="Group_1403">
                                <path id="Path_7674" d="M3283.44,-590.659C3341.81,-506.659 3370.48,-230.251 3327.32,23.047C3292.39,229.676 3217.41,430.124 3247.43,640.016C3257.03,707.21 3275.93,761.136 3300.15,805.202C3333.65,866.461 3376.66,907.694 3417.57,942.525C3483.75,998.601 3558.28,1069.13 3588.99,1204.49C3590.86,1212.74 3592.56,1221.22 3594.09,1229.95C3621.38,1385.53 3584.71,1540.85 3549.75,1681.22C3513.76,1826.59 3475.82,1987.7 3439.61,2148.61C3380.78,2410.34 3331.65,2668.09 3334.75,2935.7C3334.93,2952.03 3335.31,2968.38 3335.89,2984.77C3343.59,3202.33 3385.87,3411.02 3402.51,3642.45C3417.46,3849.78 3410.19,4052.46 3398.56,4243.39C3386.26,4445.19 3364.28,4633.44 3343.08,4842.25C3333.3,4938.55 3318.39,5040.35 3297.8,5132.85C3277.2,5225.38 3253.56,5311.22 3231.07,5397.23C3164.46,5651.98 3106.32,5912.33 3056.97,6174.09C3037.92,6275.1 3019.35,6378.96 3013.07,6495.68C3006.78,6611.57 3018.63,6742.7 3042.78,6819.41" style="fill:none;stroke:white;stroke-width:1px;"/>
                            </g>
                        </g>
                        <g transform="matrix(1,0,0,1,-645.501,616.448)">
                            <g id="Group_1404">
                                <path id="Path_7675" d="M3335.72,-583.7C3385.67,-497.97 3407.76,-226.83 3363.94,25.808C3328.62,231.234 3256.87,433 3286.99,641.859C3296.62,708.673 3315.29,762.707 3339.23,807.053C3372.41,868.842 3414.97,910.71 3455.64,946.226C3521.35,1003.33 3595.27,1073.47 3626.95,1206.89C3628.88,1215.01 3630.64,1223.37 3632.23,1231.97C3660.78,1385.28 3627.62,1540.36 3594.99,1681.63C3561.42,1828.03 3524.8,1989.81 3488.51,2149.97C3429.61,2410.21 3377.35,2662.16 3376.59,2926.95C3376.53,2943.1 3376.67,2959.3 3377.01,2975.55C3381.51,3191.2 3420.39,3400.58 3436.43,3631.36C3450.85,3837.96 3445.3,4040.02 3436.89,4229.15C3427.99,4429.32 3410.76,4615.07 3392.23,4823.7C3383.41,4923.04 3368.33,5028.06 3346.7,5122.5C3325.05,5216.98 3299.72,5303.66 3275.54,5390.4C3203.92,5647.32 3140.34,5909.62 3085.11,6173.22C3063.8,6274.94 3042.77,6379.84 3035.53,6499.52C3028.29,6618.33 3041.53,6754.56 3068.57,6828.72" style="fill:none;stroke:white;stroke-width:1px;"/>
                            </g>
                        </g>
                        <g transform="matrix(1,0,0,1,-585.735,613.583)">
                            <g id="Group_1405">
                                <path id="Path_7676" d="M3387.85,-576.738C3429.4,-489.279 3444.91,-223.4 3400.43,28.583C3364.72,232.788 3296.2,435.883 3326.41,643.702C3336.06,710.141 3354.5,764.278 3378.18,808.908C3411.04,871.208 3453.14,913.729 3493.58,949.935C3558.82,1008.05 3632.13,1077.8 3664.77,1209.29C3666.75,1217.29 3668.57,1225.53 3670.24,1233.99C3700.06,1385.03 3670.38,1539.87 3640.09,1682.04C3608.93,1829.47 3573.64,1991.92 3537.27,2151.33C3478.3,2410.07 3422.9,2656.23 3418.28,2918.2C3417.99,2934.18 3417.89,2950.23 3417.99,2966.33C3419.3,3180.08 3454.78,3390.15 3470.23,3620.29C3484.11,3826.16 3480.29,4027.59 3475.1,4214.92C3469.6,4413.44 3457.18,4596.78 3441.24,4805.14C3433.41,4907.56 3418.14,5015.76 3395.45,5112.14C3372.75,5208.57 3345.75,5296.09 3319.88,5383.57C3243.24,5642.72 3174.23,5906.85 3113.12,6172.32C3089.53,6274.77 3066.06,6380.75 3057.87,6503.28C3049.67,6625.12 3064.3,6766.45 3094.23,6838.06" style="fill:none;stroke:white;stroke-width:1px;"/>
                            </g>
                        </g>
                        <g transform="matrix(1,0,0,1,-594.964,610.719)">
                            <g id="Group_1406">
                                <path id="Path_7677" d="M3439.83,-569.78C3472.96,-480.593 3481.89,-219.963 3436.76,31.355C3400.65,234.355 3335.36,438.774 3365.67,645.555C3375.35,711.614 3393.56,765.85 3416.96,810.768C3449.5,873.595 3491.16,916.747 3531.35,953.643C3596.12,1012.77 3668.82,1082.14 3702.42,1211.69C3704.46,1219.57 3706.35,1227.68 3708.08,1236.01C3739.16,1384.79 3712.97,1539.38 3685.03,1682.47C3656.28,1830.92 3622.32,1994.04 3585.86,2152.7C3526.82,2409.95 3468.3,2650.32 3459.81,2909.46C3459.28,2925.28 3458.95,2941.17 3458.81,2957.13C3456.92,3168.99 3488.99,3379.73 3503.86,3609.23C3517.2,3814.37 3515.11,4015.2 3513.14,4200.71C3511.04,4397.61 3503.52,4578.57 3490.09,4786.63C3483.28,4892.13 3467.79,5003.49 3444.05,5101.82C3420.29,5200.18 3391.62,5288.55 3364.06,5376.77C3282.4,5638.08 3207.95,5904.15 3140.96,6171.47C3115.11,6274.62 3089.18,6381.7 3080.03,6507.14C3070.88,6631.88 3086.91,6778.37 3119.73,6847.37" style="fill:none;stroke:white;stroke-width:1px;"/>
                            </g>
                        </g>
                        <g transform="matrix(1,0,0,1,-604.116,607.853)">
                            <g id="Group_1407">
                                <path id="Path_7678" d="M3491.62,-562.821C3516.34,-471.907 3518.7,-216.53 3472.91,34.128C3436.41,235.928 3374.35,441.66 3404.75,647.412C3414.45,713.097 3432.43,767.435 3455.57,812.637C3487.79,875.982 3528.99,919.772 3568.94,957.357C3633.25,1017.5 3705.34,1086.48 3739.9,1214.1C3742,1221.86 3743.95,1229.84 3745.76,1238.05C3778.09,1384.55 3755.42,1538.9 3729.79,1682.89C3703.45,1832.38 3670.82,1996.16 3634.28,2154.07C3575.17,2409.84 3513.51,2644.43 3501.17,2900.74C3500.39,2916.39 3499.82,2932.13 3499.45,2947.94C3494.37,3157.9 3523.04,3369.34 3537.3,3598.18C3550.11,3802.6 3549.76,4002.82 3550.99,4186.52C3552.31,4381.8 3549.76,4560.41 3538.76,4768.12C3533.01,4876.73 3517.26,4991.22 3492.46,5091.5C3467.66,5191.81 3437.31,5281 3408.05,5369.97C3321.38,5633.5 3241.49,5901.46 3168.63,6170.6C3140.5,6274.46 3112.13,6382.57 3102.03,6510.97C3091.93,6638.67 3109.34,6790.25 3145.05,6856.71" style="fill:none;stroke:white;stroke-width:1px;"/>
                            </g>
                        </g>
                        <g transform="matrix(1,0,0,1,-613.181,604.988)">
                            <g id="Group_1408">
                                <path id="Path_7679" d="M3543.21,-555.863C3559.52,-463.223 3555.29,-213.088 3508.85,36.907C3471.95,237.495 3413.12,444.553 3443.63,649.278C3453.35,714.585 3471.1,769.025 3493.96,814.505C3525.86,878.379 3566.61,922.805 3606.32,961.076C3670.16,1022.24 3741.65,1090.83 3777.15,1216.51C3779.32,1224.16 3781.34,1232.02 3783.2,1240.09C3816.8,1384.33 3797.63,1538.43 3774.34,1683.33C3750.41,1833.84 3719.11,1998.29 3682.48,2155.45C3623.31,2409.73 3558.52,2638.54 3542.32,2892.03C3541.31,2907.52 3540.49,2923.1 3539.88,2938.76C3531.61,3146.83 3556.87,3358.96 3570.54,3587.16C3582.82,3790.86 3584.2,3990.46 3588.64,4172.35C3593.38,4366 3595.86,4542.31 3587.22,4749.64C3582.56,4861.37 3566.51,4978.98 3540.66,5081.21C3514.8,5183.46 3482.78,5273.49 3451.83,5363.19C3360.15,5628.89 3274.82,5898.79 3196.08,6169.76C3165.69,6274.34 3134.86,6383.53 3123.81,6514.77C3112.75,6645.43 3131.55,6802.11 3170.15,6866.02" style="fill:none;stroke:white;stroke-width:1px;"/>
                            </g>
                        </g>
                        <g transform="matrix(1,0,0,1,-622.145,602.124)">
                            <g id="Group_1409">
                                <path id="Path_7680" d="M3594.56,-548.9C3602.46,-454.536 3591.65,-209.641 3544.55,39.691C3507.26,239.071 3451.66,447.45 3482.27,651.142C3492.01,716.075 3509.53,770.619 3532.12,816.382C3563.71,880.769 3604,925.834 3643.47,964.8C3706.85,1026.97 3777.71,1095.17 3814.2,1218.93C3816.39,1226.45 3818.49,1234.19 3820.42,1242.13C3855.27,1384.1 3839.59,1537.97 3818.66,1683.76C3797.15,1835.3 3767.16,2000.42 3730.46,2156.83C3671.21,2409.63 3603.29,2632.66 3583.22,2883.33C3581.98,2898.66 3580.93,2914.08 3580.07,2929.6C3568.61,3135.77 3590.47,3348.57 3603.55,3576.14C3615.29,3779.12 3618.42,3978.11 3626.07,4158.19C3634.22,4350.22 3641.8,4524.22 3635.45,4731.18C3631.92,4846.03 3615.54,4966.75 3588.63,5070.92C3561.72,5175.11 3528.03,5265.98 3495.39,5356.42C3398.69,5624.33 3307.92,5896.11 3223.31,6168.91C3190.64,6274.2 3157.36,6384.47 3145.35,6518.62C3133.34,6652.18 3153.53,6814 3195.02,6875.36" style="fill:none;stroke:white;stroke-width:1px;"/>
                            </g>
                        </g>
                        <g transform="matrix(1,0,0,1,-630.997,599.257)">
                            <g id="Group_1410">
                                <path id="Path_7681" d="M3645.64,-541.942C3645.13,-445.86 3627.74,-206.204 3579.98,42.476C3542.31,240.649 3489.93,450.345 3520.64,653.011C3530.4,717.56 3547.69,772.211 3570.02,818.258C3601.28,883.167 3641.12,928.875 3680.35,968.514C3743.25,1031.71 3813.52,1099.52 3850.95,1221.34C3853.24,1228.75 3855.38,1236.36 3857.38,1244.17C3893.49,1383.88 3881.3,1537.51 3862.68,1684.2C3843.6,1836.77 3814.94,2002.56 3778.15,2158.22C3718.84,2409.53 3647.79,2626.79 3623.86,2874.65C3622.38,2889.8 3621.09,2905.07 3619.99,2920.45C3605.34,3124.73 3623.79,3338.22 3636.28,3565.15C3647.48,3767.39 3652.37,3965.79 3663.21,4144.05C3674.79,4334.48 3687.53,4506.16 3683.4,4712.75C3681.05,4830.71 3664.28,4954.55 3636.33,5060.65C3608.37,5166.78 3573,5258.49 3538.66,5349.67C3436.95,5619.73 3340.75,5893.45 3250.25,6168.07C3215.32,6274.07 3179.59,6385.38 3166.63,6522.48C3153.66,6658.99 3175.24,6825.9 3219.62,6884.66" style="fill:none;stroke:white;stroke-width:1px;"/>
                            </g>
                        </g>
                        <g transform="matrix(1,0,0,1,-639.717,596.392)">
                            <g id="Group_1411">
                                <path id="Path_7682" d="M3696.41,-534.984C3687.49,-437.184 3663.52,-202.761 3615.11,45.262C3577.03,242.234 3527.89,453.249 3558.69,654.879C3568.49,719.055 3585.54,773.804 3607.59,820.133C3638.54,885.564 3677.91,931.909 3716.91,972.24C3779.35,1036.44 3848.99,1103.87 3887.41,1223.76C3889.72,1231.05 3891.92,1238.54 3894.01,1246.21C3931.37,1383.66 3922.7,1537.06 3906.42,1684.64C3889.75,1838.24 3862.41,2004.7 3825.53,2159.6C3766.15,2409.43 3691.97,2620.93 3664.18,2865.97C3662.46,2880.96 3660.93,2896.07 3659.6,2911.3C3641.75,3113.69 3656.8,3327.87 3668.7,3554.16C3679.36,3755.68 3686.01,3953.46 3700.03,4129.92C3715.05,4318.73 3732.99,4488.1 3731.03,4694.31C3729.89,4815.4 3712.72,4942.35 3683.71,5050.39C3654.7,5158.45 3617.66,5250.99 3581.63,5342.91C3474.9,5615.19 3373.26,5890.78 3276.89,6167.23C3239.68,6273.95 3201.5,6386.33 3187.59,6526.28C3173.66,6665.74 3196.63,6837.73 3243.9,6894" style="fill:none;stroke:white;stroke-width:1px;"/>
                            </g>
                        </g>
                        <g transform="matrix(1,0,0,1,-648.288,593.526)">
                            <g id="Group_1412">
                                <path id="Path_7683" d="M3746.83,-528.025C3729.49,-428.502 3698.95,-199.307 3649.88,48.055C3611.41,243.823 3565.5,456.155 3596.39,656.763C3606.21,720.563 3623.04,775.413 3644.82,822.025C3675.45,887.978 3714.37,934.959 3753.13,975.971C3815.1,1041.18 3884.14,1108.22 3923.5,1226.2C3925.88,1233.36 3928.16,1240.72 3930.32,1248.27C3968.93,1383.46 3963.75,1536.61 3949.8,1685.11C3935.54,1839.72 3909.55,2006.84 3872.58,2161.01C3813.13,2409.36 3735.82,2615.09 3704.17,2857.32C3702.21,2872.14 3700.45,2887.1 3698.87,2902.19C3677.83,3102.69 3689.47,3317.55 3700.78,3543.2C3710.9,3744 3719.31,3941.17 3736.53,4115.83C3754.97,4303.02 3778.17,4470.06 3778.34,4675.93C3778.44,4800.12 3760.81,4930.18 3730.75,5040.15C3700.69,5150.16 3661.98,5243.54 3624.25,5336.19C3512.51,5610.63 3405.43,5888.16 3303.18,6166.43C3263.72,6273.85 3223.08,6387.33 3208.21,6530.16C3193.34,6672.56 3217.69,6849.64 3267.85,6903.32" style="fill:none;stroke:white;stroke-width:1px;"/>
                            </g>
                        </g>
                        <g transform="matrix(1,0,0,1,-656.69,590.662)">
                            <g id="Group_1413">
                                <path id="Path_7684" d="M3796.84,-521.067C3771.11,-419.825 3733.97,-195.859 3684.25,50.847C3645.39,245.416 3602.7,459.062 3633.7,658.638C3643.54,722.064 3660.14,777.018 3681.65,823.912C3711.96,890.38 3750.43,938.002 3788.93,979.696C3850.46,1045.92 3918.87,1112.57 3959.19,1228.62C3961.65,1235.67 3963.99,1242.91 3966.2,1250.33C4006.09,1383.26 4004.4,1536.16 3992.8,1685.55C3980.95,1841.19 3956.26,2008.98 3919.23,2162.39C3859.71,2409.27 3779.25,2609.24 3743.74,2848.66C3741.55,2863.32 3739.54,2878.12 3737.73,2893.07C3713.5,3091.68 3721.74,3307.22 3732.45,3532.22C3742.04,3732.31 3752.22,3928.87 3772.6,4101.72C3794.5,4287.3 3823,4451.99 3825.24,4657.53C3826.61,4784.79 3808.5,4918 3777.4,5029.91C3746.27,5141.85 3705.89,5236.06 3666.47,5329.45C3549.72,5606.05 3437.2,5885.45 3329.07,6165.6C3287.34,6273.73 3244.24,6388.23 3228.42,6534.01C3212.6,6679.31 3238.34,6861.5 3291.39,6912.65" style="fill:none;stroke:white;stroke-width:1px;"/>
                            </g>
                        </g>
                        <g transform="matrix(1,0,0,1,-664.902,587.797)">
                            <g id="Group_1414">
                                <path id="Path_7685" d="M3846.41,-514.109C3812.25,-411.149 3768.55,-192.401 3718.17,53.645C3678.92,247.017 3639.46,461.974 3670.56,660.529C3680.42,723.578 3696.79,778.635 3718.03,825.805C3748.02,892.795 3786.04,941.052 3824.32,983.431C3885.36,1050.67 3953.17,1116.93 3994.46,1231.06C3996.96,1237.99 3999.36,1245.1 4001.64,1252.38C4042.78,1383.06 4044.61,1535.73 4035.31,1686.03C4025.89,1842.69 4002.53,2011.14 3965.41,2163.81C3905.82,2409.19 3822.25,2603.42 3782.87,2840.04C3780.44,2854.53 3778.2,2869.18 3776.15,2883.98C3748.72,3080.7 3753.56,3296.93 3763.68,3521.3C3772.74,3720.65 3784.68,3916.6 3808.26,4087.66C3833.6,4271.6 3867.42,4433.91 3871.68,4639.18C3874.38,4769.51 3855.76,4905.86 3823.58,5019.7C3791.43,5133.58 3749.36,5228.62 3708.25,5322.74C3586.48,5601.55 3468.57,5882.23 3354.52,6164.8C3310.52,6273.64 3264.97,6389.22 3248.2,6537.84C3231.42,6686.14 3258.55,6873.4 3314.5,6921.96" style="fill:none;stroke:white;stroke-width:1px;"/>
                            </g>
                        </g>
                        <g transform="matrix(1,0,0,1,-672.909,584.93)">
                            <g id="Group_1415">
                                <path id="Path_7686" d="M3895.51,-507.146C3852.92,-402.475 3802.65,-188.946 3751.6,56.454C3711.96,248.618 3675.73,464.891 3706.93,662.418C3716.81,725.096 3732.95,780.254 3753.93,827.707C3783.59,895.217 3821.15,944.107 3859.19,987.168C3919.77,1055.42 3986.98,1121.29 4029.21,1233.5C4031.78,1240.31 4034.25,1247.29 4036.61,1254.45C4079.01,1382.87 4084.33,1535.3 4077.36,1686.5C4070.35,1844.18 4048.34,2013.3 4011.12,2165.22C3951.45,2409.13 3864.76,2597.6 3821.52,2831.41C3818.85,2845.74 3816.37,2860.23 3814.08,2874.89C3783.46,3069.73 3784.89,3286.63 3794.42,3510.36C3802.95,3709 3816.66,3904.32 3843.39,4073.6C3872.2,4255.91 3911.39,4415.81 3917.63,4620.84C3921.7,4754.2 3902.51,4893.72 3869.29,5009.5C3836.07,5125.29 3792.33,5221.18 3749.53,5316.04C3622.75,5596.99 3499.39,5879.65 3379.47,6163.99C3333.2,6273.49 3285.2,6390.2 3267.47,6541.71C3249.74,6692.89 3278.26,6885.23 3337.1,6931.3" style="fill:none;stroke:white;stroke-width:1px;"/>
                            </g>
                        </g>
                        <g transform="matrix(1,0,0,1,-680.695,582.065)">
                            <g id="Group_1416">
                                <path id="Path_7687" d="M3944.06,-500.188C3893.08,-393.801 3836.21,-185.488 3784.52,59.254C3744.48,250.218 3711.48,467.811 3742.77,664.312C3752.68,726.612 3768.59,781.869 3789.29,829.612C3818.65,897.637 3855.75,947.164 3893.54,990.912C3953.64,1060.16 4020.25,1125.66 4063.46,1235.94C4066.06,1242.64 4068.58,1249.5 4071.03,1256.52C4114.67,1382.69 4123.52,1534.89 4118.89,1686.97C4114.27,1845.68 4093.57,2015.46 4056.29,2166.64C3996.57,2409.07 3906.72,2591.8 3859.63,2822.8C3856.74,2836.96 3854.02,2851.3 3851.46,2865.82C3817.66,3058.78 3815.69,3276.37 3824.63,3499.45C3832.6,3697.37 3848.12,3892.07 3878.01,4059.57C3910.26,4240.25 3954.88,4397.7 3963.07,4602.53C3968.53,4738.89 3948.73,4881.61 3914.45,4999.33C3880.18,5117.06 3834.77,5213.77 3790.28,5309.36C3658.48,5592.52 3529.69,5877.14 3403.89,6163.22C3355.35,6273.42 3304.91,6391.16 3286.22,6545.6C3267.53,6699.67 3297.44,6897.12 3359.17,6940.61" style="fill:none;stroke:white;stroke-width:1px;"/>
                            </g>
                        </g>
                        <g transform="matrix(1,0,0,1,-688.26,579.201)">
                            <g id="Group_1417">
                                <path id="Path_7688" d="M3992.09,-493.23C3932.71,-385.124 3869.26,-182.019 3816.89,62.06C3776.47,251.828 3746.7,470.731 3778.09,666.205C3788.03,728.13 3803.69,783.493 3824.14,831.514C3853.17,900.054 3889.81,950.214 3927.39,994.646C3987.01,1064.91 4052.99,1130.01 4097.16,1238.38C4099.84,1244.95 4102.44,1251.69 4104.92,1258.59C4149.84,1382.51 4162.18,1534.46 4159.89,1687.44C4157.67,1847.17 4138.3,2017.62 4100.94,2168.05C4041.16,2409.01 3948.17,2585.99 3897.23,2814.2C3894.07,2828.19 3891.11,2842.38 3888.34,2856.75C3851.34,3047.83 3845.97,3266.09 3854.3,3488.55C3861.74,3685.75 3879.04,3879.79 3912.11,4045.53C3947.84,4224.56 3997.87,4379.53 4007.96,4584.21C4014.85,4723.55 3994.42,4869.49 3959.11,4989.14C3923.77,5108.79 3876.7,5206.34 3830.5,5302.66C3693.7,5587.98 3559.47,5874.56 3427.79,6162.41C3376.98,6273.32 3324.08,6392.14 3304.44,6549.41C3284.81,6706.47 3316.1,6908.98 3380.72,6949.94" style="fill:none;stroke:white;stroke-width:1px;"/>
                            </g>
                        </g>
                        <g transform="matrix(1,0,0,1,-695.613,576.335)">
                            <g id="Group_1418">
                                <path id="Path_7689" d="M4039.62,-486.271C3971.81,-376.452 3901.79,-178.554 3848.79,64.872C3807.96,253.447 3781.43,473.657 3812.9,668.112C3822.87,729.661 3838.31,785.126 3858.48,833.423C3887.19,902.482 3923.37,953.281 3960.71,998.392C4019.87,1069.66 4085.24,1134.39 4130.39,1240.83C4133.11,1247.29 4135.76,1253.9 4138.34,1260.67C4184.51,1382.34 4200.32,1534.05 4200.39,1687.93C4200.58,1848.68 4182.56,2019.79 4145.1,2169.48C4085.24,2408.96 3989.13,2580.21 3934.3,2805.62C3930.93,2819.45 3927.74,2833.48 3924.72,2847.71C3884.52,3036.91 3875.74,3255.85 3883.5,3477.67C3890.41,3674.15 3909.47,3867.55 3945.7,4031.53C3984.89,4208.91 4040.39,4361.35 4052.39,4565.94C4060.72,4708.22 4039.65,4857.42 4003.25,4978.99C3966.88,5100.57 3918.12,5198.95 3870.26,5296.01C3728.42,5583.53 3588.73,5872.07 3451.2,6161.65C3398.12,6273.26 3342.77,6393.16 3322.18,6553.32C3301.58,6713.26 3334.27,6920.88 3401.78,6959.26" style="fill:none;stroke:white;stroke-width:1px;"/>
                            </g>
                        </g>
                        <g transform="matrix(1,0,0,1,-702.775,573.47)">
                            <g id="Group_1419">
                                <path id="Path_7690" d="M4086.7,-479.313C4010.48,-367.783 3933.88,-175.089 3880.21,67.687C3839,255.061 3815.7,476.582 3847.28,670.013C3857.26,731.191 3872.48,786.759 3892.35,835.337C3920.75,904.915 3956.5,956.347 3993.6,1002.14C4052.28,1074.41 4117.05,1138.76 4163.13,1243.29C4165.93,1249.62 4168.64,1256.11 4171.27,1262.75C4218.73,1382.17 4238.05,1533.65 4240.43,1688.42C4243.06,1850.19 4226.34,2021.96 4188.81,2170.91C4128.85,2408.91 4029.63,2574.43 3970.95,2797.04C3967.34,2810.7 3963.9,2824.58 3960.64,2838.67C3917.26,3025.99 3905.07,3245.62 3912.23,3466.79C3918.61,3662.55 3939.47,3855.29 3978.86,4017.54C4021.52,4193.24 4082.48,4343.11 4096.34,4547.68C4106.16,4692.86 4084.39,4845.34 4046.95,4968.84C4009.52,5092.33 3959.1,5191.56 3909.53,5289.34C3762.68,5579.01 3617.56,5869.51 3474.15,6160.86C3418.8,6273.19 3360.99,6394.11 3339.45,6557.19C3317.9,6720.07 3351.97,6932.69 3422.37,6968.59" style="fill:none;stroke:white;stroke-width:1px;"/>
                            </g>
                        </g>
                        <g transform="matrix(1,0,0,1,-709.791,570.603)">
                            <g id="Group_1420">
                                <path id="Path_7691" d="M4133.44,-472.35C4048.81,-359.114 3965.61,-171.615 3911.32,70.506C3869.69,256.686 3849.62,479.514 3881.3,671.922C3891.3,732.73 3906.28,788.4 3925.91,837.259C3953.98,907.351 3989.27,959.415 4026.12,1005.89C4084.34,1079.17 4148.49,1143.13 4195.56,1245.74C4198.4,1251.96 4201.17,1258.32 4203.87,1264.83C4252.58,1382.01 4275.39,1533.25 4280.11,1688.92C4285.15,1851.7 4269.78,2024.14 4232.15,2172.34C4172.15,2408.88 4069.8,2568.68 4007.24,2788.49C4003.38,2801.99 3999.71,2815.71 3996.23,2829.66C3949.64,3015.09 3934.06,3235.4 3940.61,3455.95C3946.46,3650.99 3969.22,3842.9 4011.64,4003.58C4057.92,4177.43 4124.23,4324.86 4139.94,4529.45C4151.31,4677.48 4128.79,4833.29 4090.32,4958.73C4051.83,5084.15 3999.72,5184.19 3948.46,5282.72C3796.6,5574.57 3646.03,5867.04 3496.75,6160.12C3439.14,6273.14 3378.88,6395.15 3356.38,6561.05C3333.88,6726.85 3369.34,6944.58 3442.63,6977.91" style="fill:none;stroke:white;stroke-width:1px;"/>
                            </g>
                        </g>
                    </g>
                </g>
            </g>
        </g>
    </g>
</svg>
