<svg xmlns="http://www.w3.org/2000/svg" width="201.892" height="55.121" viewBox="0 0 201.892 55.121">
  <g id="Component_52_1" data-name="Component 52 – 1" transform="translate(0)">
    <g id="Group_1478" data-name="Group 1478" transform="translate(0 0)">
      <g id="Group_1463" data-name="Group 1463" transform="translate(96.383 10.209)">
        <path id="Path_7706" data-name="Path 7706" d="M2285.265,3532.6s18.566,15.834,26.646,22.73a1.243,1.243,0,0,0,1.981-1.391l-12.065-31.521-4.494,11.276s-19.164-16.16-26.959-22.7a1.091,1.091,0,0,0-1.724,1.214l12.337,32.231Z" transform="translate(-2268.576 -3510.729)" fill="#fff"/>
      </g>
      <g id="Group_1472" data-name="Group 1472" transform="translate(119.12)">
        <g id="Group_1464" data-name="Group 1464" transform="translate(0 0.232)">
          <path id="Path_7707" data-name="Path 7707" d="M7.06-16.49a7.663,7.663,0,0,1,2.777.464,3.98,3.98,0,0,1,1.824,1.334,3.342,3.342,0,0,1,.641,2.03,3.342,3.342,0,0,1-.641,2.03A3.98,3.98,0,0,1,9.836-9.3a7.663,7.663,0,0,1-2.777.464H5.4v2.494H1.523V-16.49Zm-.246,5.018A1.824,1.824,0,0,0,8-11.791a1.034,1.034,0,0,0,.394-.87A1.081,1.081,0,0,0,8-13.545a1.918,1.918,0,0,0-1.183-.3H5.4v2.378Z" transform="translate(-1.523 16.49)" fill="#202124"/>
        </g>
        <g id="Group_1465" data-name="Group 1465" transform="translate(12.041 0.232)">
          <path id="Path_7708" data-name="Path 7708" d="M1.523-16.49H5.4v7.5h5.192v2.654H1.523Z" transform="translate(-1.523 16.49)" fill="#202124"/>
        </g>
        <g id="Group_1466" data-name="Group 1466" transform="translate(21.095 0.232)">
          <path id="Path_7709" data-name="Path 7709" d="M8.578-8.107H4.208L3.436-6.338H-.508L4.52-16.49H8.332L13.359-6.338H9.35ZM7.51-10.572,6.393-13.125,5.276-10.572Z" transform="translate(0.508 16.49)" fill="#202124"/>
        </g>
        <g id="Group_1467" data-name="Group 1467" transform="translate(33.467 0.232)">
          <path id="Path_7710" data-name="Path 7710" d="M7.494-10.021v3.684H3.616v-3.727L-.721-16.49H3.37l2.349,3.51,2.366-3.51h3.746Z" transform="translate(0.721 16.49)" fill="#202124"/>
        </g>
        <g id="Group_1468" data-name="Group 1468" transform="translate(46.511 0.232)">
          <path id="Path_7711" data-name="Path 7711" d="M1.523-16.49H5.4v7.5h5.192v2.654H1.523Z" transform="translate(-1.523 16.49)" fill="#202124"/>
        </g>
        <g id="Group_1469" data-name="Group 1469" transform="translate(56.648 0.232)">
          <rect id="Rectangle_164" data-name="Rectangle 164" width="3.877" height="10.152" transform="translate(0 0)" fill="#202124"/>
        </g>
        <g id="Group_1470" data-name="Group 1470" transform="translate(61.677)">
          <path id="Path_7712" data-name="Path 7712" d="M5.358-6.25a12.585,12.585,0,0,1-2.777-.29A7.9,7.9,0,0,1,.347-7.295L1.6-9.789a8.32,8.32,0,0,0,1.84.667,7.839,7.839,0,0,0,1.955.261,3.114,3.114,0,0,0,1.15-.145c.23-.087.345-.218.345-.406q0-.326-.444-.479a13.231,13.231,0,0,0-1.5-.348,17.629,17.629,0,0,1-2.218-.537A3.818,3.818,0,0,1,1.185-11.7a2.278,2.278,0,0,1-.657-1.74,2.739,2.739,0,0,1,.608-1.74A4.084,4.084,0,0,1,2.96-16.417a8.278,8.278,0,0,1,2.925-.45,12.569,12.569,0,0,1,2.333.218,8.239,8.239,0,0,1,2,.667L9.055-13.5a7.846,7.846,0,0,0-3.2-.754c-1,0-1.5.218-1.5.638,0,.2.148.348.444.45a10.37,10.37,0,0,0,1.462.334,17.2,17.2,0,0,1,2.218.493,3.993,3.993,0,0,1,1.577.928,2.278,2.278,0,0,1,.657,1.74,2.671,2.671,0,0,1-.608,1.726A4.026,4.026,0,0,1,8.3-6.714,8.036,8.036,0,0,1,5.358-6.25Z" transform="translate(-0.347 16.866)" fill="#202124"/>
        </g>
        <g id="Group_1471" data-name="Group 1471" transform="translate(72.158 0.232)">
          <path id="Path_7713" data-name="Path 7713" d="M3.475-13.836H.107V-16.49H10.721v2.654H7.352v7.5H3.475Z" transform="translate(-0.107 16.49)" fill="#202124"/>
        </g>
      </g>
      <g id="Group_1473" data-name="Group 1473" transform="translate(0 13.837)">
        <path id="Path_7714" data-name="Path 7714" d="M18.742-17.4a18.606,18.606,0,0,1-8.574-1.9,14.344,14.344,0,0,1-5.959-5.248,13.587,13.587,0,0,1-2.186-7.63,13.814,13.814,0,0,1,2.186-7.67,14.628,14.628,0,0,1,5.959-5.248,19.669,19.669,0,0,1,8.574-1.857,19.786,19.786,0,0,1,7.8,1.453A14.722,14.722,0,0,1,32.2-41.3s-3.173,2.664-5.016,4.239A1.881,1.881,0,0,1,24.7-37.1a8.1,8.1,0,0,0-5.445-2.14,7.039,7.039,0,0,0-5.1,1.9,7.022,7.022,0,0,0-1.929,5.167,6.864,6.864,0,0,0,1.929,5.127,6.9,6.9,0,0,0,5.1,1.938,7.776,7.776,0,0,0,5.359-2.1,2.007,2.007,0,0,1,2.615,0C29.117-25.633,32.2-23.05,32.2-23.05a14.722,14.722,0,0,1-5.659,4.2A19.786,19.786,0,0,1,18.742-17.4Z" transform="translate(-2.022 46.948)" fill="#202124"/>
      </g>
      <g id="Group_1474" data-name="Group 1474" transform="translate(33.1 14.483)">
        <path id="Path_7715" data-name="Path 7715" d="M16.835-24.746H14.091v5.006a2.144,2.144,0,0,1-.6,1.494,2.072,2.072,0,0,1-1.5.606H3.974V-45.9H18.422a18.877,18.877,0,0,1,7.245,1.292,10.462,10.462,0,0,1,4.759,3.714A9.732,9.732,0,0,1,32.1-35.241a9.4,9.4,0,0,1-1.458,5.288,10.191,10.191,0,0,1-4.2,3.593l6.3,8.72H23.652a3.269,3.269,0,0,1-2.7-1.413C19.451-21.112,16.835-24.746,16.835-24.746Zm5.059-10.5A3.1,3.1,0,0,0,20.865-37.7a4.773,4.773,0,0,0-3.087-.848H14.091v6.62h3.687a4.547,4.547,0,0,0,3.087-.888A2.96,2.96,0,0,0,21.894-35.241Z" transform="translate(-3.974 45.899)" fill="#202124"/>
      </g>
      <g id="Group_1475" data-name="Group 1475" transform="translate(136.896 13.837)">
        <path id="Path_7716" data-name="Path 7716" d="M18.742-17.4a18.606,18.606,0,0,1-8.574-1.9,14.344,14.344,0,0,1-5.959-5.248,13.587,13.587,0,0,1-2.186-7.63,13.814,13.814,0,0,1,2.186-7.67,14.628,14.628,0,0,1,5.959-5.248,19.669,19.669,0,0,1,8.574-1.857,19.786,19.786,0,0,1,7.8,1.453A14.722,14.722,0,0,1,32.2-41.3s-2.444,2.059-4.287,3.633a3.122,3.122,0,0,1-3.816.081,7.862,7.862,0,0,0-4.845-1.655,7.039,7.039,0,0,0-5.1,1.9,7.022,7.022,0,0,0-1.929,5.167,6.864,6.864,0,0,0,1.929,5.127,6.9,6.9,0,0,0,5.1,1.938A7.862,7.862,0,0,0,24.1-26.764a3.058,3.058,0,0,1,3.773.081c1.886,1.574,4.33,3.633,4.33,3.633a14.722,14.722,0,0,1-5.659,4.2A19.786,19.786,0,0,1,18.742-17.4Z" transform="translate(-2.022 46.948)" fill="#202124"/>
      </g>
      <g id="Group_1476" data-name="Group 1476" transform="translate(169.996 14.483)">
        <path id="Path_7717" data-name="Path 7717" d="M33.555-45.9v28.258H25.667a2.227,2.227,0,0,1-2.229-2.22v-8.195H14.091v10.415H3.974V-45.9H11.09a3.084,3.084,0,0,1,2.144.888,3,3,0,0,1,.857,2.1v7.024h9.346V-45.9Z" transform="translate(-3.974 45.899)" fill="#202124"/>
      </g>
      <g id="Group_1477" data-name="Group 1477" transform="translate(63.921 14.552)">
        <path id="Path_7718" data-name="Path 7718" d="M18.049-16.89c-4.556,0-8.132-1.163-10.686-3.49S3.531-25.957,3.531-30.17V-45.616H13.579v15.165c0,2.046.383,3.571,1.192,4.493a4.115,4.115,0,0,0,3.363,1.4,4.263,4.263,0,0,0,3.406-1.4,7.075,7.075,0,0,0,1.15-4.493V-45.616h9.878V-30.17c0,4.213-1.277,7.462-3.832,9.789S22.6-16.89,18.049-16.89Z" transform="translate(-3.531 45.616)" fill="#202124"/>
      </g>
    </g>
  </g>
</svg>
