<svg id="Component_50_1" data-name="Component 50 – 1" xmlns="http://www.w3.org/2000/svg" width="248.473" height="67.401" viewBox="0 0 248.473 67.401">
  <g id="Group_1447" data-name="Group 1447" transform="translate(118.622 12.483)">
    <path id="Path_7693" data-name="Path 7693" d="M2289.116,3537.47s22.85,19.362,32.793,27.794a1.527,1.527,0,0,0,2.438-1.7l-14.848-38.542-5.531,13.789s-23.585-19.76-33.18-27.757a1.34,1.34,0,0,0-2.121,1.483l15.183,39.412Z" transform="translate(-2268.576 -3510.729)" fill="#ec0087"/>
  </g>
  <g id="Group_1456" data-name="Group 1456" transform="translate(146.603)">
    <g id="Group_1448" data-name="Group 1448" transform="translate(0 0.284)">
      <path id="Path_7694" data-name="Path 7694" d="M8.337-16.49a9.487,9.487,0,0,1,3.417.567A4.9,4.9,0,0,1,14-14.291a4.068,4.068,0,0,1,.789,2.483A4.068,4.068,0,0,1,14-9.325a4.9,4.9,0,0,1-2.245,1.632,9.487,9.487,0,0,1-3.417.567H6.295v3.05H1.523V-16.49Zm-.3,6.136a2.256,2.256,0,0,0,1.456-.39,1.262,1.262,0,0,0,.485-1.064A1.319,1.319,0,0,0,9.49-12.89a2.372,2.372,0,0,0-1.456-.372H6.295v2.908Z" transform="translate(-1.523 16.49)" fill="#c4c4c4"/>
    </g>
    <g id="Group_1449" data-name="Group 1449" transform="translate(14.819 0.284)">
      <path id="Path_7695" data-name="Path 7695" d="M1.523-16.49H6.295v9.168h6.39v3.245H1.523Z" transform="translate(-1.523 16.49)" fill="#c4c4c4"/>
    </g>
    <g id="Group_1450" data-name="Group 1450" transform="translate(25.962 0.284)">
      <path id="Path_7696" data-name="Path 7696" d="M10.674-6.239H5.3l-.95,2.164H-.508L5.68-16.49h4.691L16.559-4.076H11.625ZM9.36-9.254,7.985-12.375,6.61-9.254Z" transform="translate(0.508 16.49)" fill="#c4c4c4"/>
    </g>
    <g id="Group_1451" data-name="Group 1451" transform="translate(41.188 0.284)">
      <path id="Path_7697" data-name="Path 7697" d="M9.389-8.58v4.5H4.617V-8.634L-.721-16.49H4.314L7.205-12.2l2.912-4.292h4.61Z" transform="translate(0.721 16.49)" fill="#c4c4c4"/>
    </g>
    <g id="Group_1452" data-name="Group 1452" transform="translate(57.242 0.284)">
      <path id="Path_7698" data-name="Path 7698" d="M1.523-16.49H6.295v9.168h6.39v3.245H1.523Z" transform="translate(-1.523 16.49)" fill="#c4c4c4"/>
    </g>
    <g id="Group_1453" data-name="Group 1453" transform="translate(69.718 0.284)">
      <rect id="Rectangle_163" data-name="Rectangle 163" width="4.772" height="12.414" transform="translate(0 0)" fill="#c4c4c4"/>
    </g>
    <g id="Group_1454" data-name="Group 1454" transform="translate(75.907)">
      <path id="Path_7699" data-name="Path 7699" d="M6.515-3.885A15.586,15.586,0,0,1,3.1-4.24a9.768,9.768,0,0,1-2.75-.922l1.537-3.05A10.282,10.282,0,0,0,4.149-7.4a9.707,9.707,0,0,0,2.406.319,3.856,3.856,0,0,0,1.415-.177c.283-.106.425-.266.425-.5q0-.4-.546-.585a16.372,16.372,0,0,0-1.84-.426,21.813,21.813,0,0,1-2.73-.656,4.705,4.705,0,0,1-1.9-1.135A2.776,2.776,0,0,1,.57-12.681a3.335,3.335,0,0,1,.748-2.128,5.027,5.027,0,0,1,2.245-1.507,10.248,10.248,0,0,1,3.6-.55,15.567,15.567,0,0,1,2.871.266,10.186,10.186,0,0,1,2.467.816l-1.436,3.032a9.709,9.709,0,0,0-3.943-.922c-1.233,0-1.84.266-1.84.78,0,.248.182.426.546.55a12.833,12.833,0,0,0,1.8.408,21.282,21.282,0,0,1,2.73.6A4.922,4.922,0,0,1,12.3-10.2a2.776,2.776,0,0,1,.809,2.128,3.253,3.253,0,0,1-.748,2.11,4.956,4.956,0,0,1-2.224,1.507A9.948,9.948,0,0,1,6.515-3.885Z" transform="translate(-0.347 16.866)" fill="#c4c4c4"/>
    </g>
    <g id="Group_1455" data-name="Group 1455" transform="translate(88.807 0.284)">
      <path id="Path_7700" data-name="Path 7700" d="M4.252-13.244H.107V-16.49H13.169v3.245H9.024v9.168H4.252Z" transform="translate(-0.107 16.49)" fill="#c4c4c4"/>
    </g>
  </g>
  <g id="Group_1457" data-name="Group 1457" transform="translate(0 16.919)">
    <path id="Path_7701" data-name="Path 7701" d="M22.6-10.815a23.022,23.022,0,0,1-10.553-2.32,17.618,17.618,0,0,1-7.334-6.417,16.536,16.536,0,0,1-2.691-9.329A16.812,16.812,0,0,1,4.713-38.26a17.967,17.967,0,0,1,7.334-6.417A24.339,24.339,0,0,1,22.6-46.948a24.49,24.49,0,0,1,9.6,1.777,18.11,18.11,0,0,1,6.965,5.134s-3.9,3.258-6.173,5.183a2.327,2.327,0,0,1-3.06-.049,10.01,10.01,0,0,0-6.7-2.616,8.7,8.7,0,0,0-6.279,2.32,8.555,8.555,0,0,0-2.374,6.318,8.363,8.363,0,0,0,2.374,6.269,8.526,8.526,0,0,0,6.279,2.369,9.6,9.6,0,0,0,6.6-2.567,2.482,2.482,0,0,1,3.219,0c2.322,1.925,6.121,5.084,6.121,5.084A18.11,18.11,0,0,1,32.2-12.592,24.49,24.49,0,0,1,22.6-10.815Z" transform="translate(-2.022 46.948)" fill="#c4c4c4"/>
  </g>
  <g id="Group_1458" data-name="Group 1458" transform="translate(40.737 17.709)">
    <path id="Path_7702" data-name="Path 7702" d="M19.8-20.033H16.426v6.121a2.612,2.612,0,0,1-.739,1.826,2.559,2.559,0,0,1-1.847.74H3.974V-45.9H21.755a23.366,23.366,0,0,1,8.917,1.58,12.863,12.863,0,0,1,5.857,4.541,11.845,11.845,0,0,1,2.058,6.911A11.434,11.434,0,0,1,36.793-26.4a12.52,12.52,0,0,1-5.171,4.393l7.756,10.662H28.192a4.03,4.03,0,0,1-3.324-1.728C23.021-15.591,19.8-20.033,19.8-20.033Zm6.226-12.834a3.778,3.778,0,0,0-1.266-3.011,5.9,5.9,0,0,0-3.8-1.037H16.426v8.1h4.538a5.621,5.621,0,0,0,3.8-1.086A3.609,3.609,0,0,0,26.029-32.867Z" transform="translate(-3.974 45.899)" fill="#c4c4c4"/>
  </g>
  <g id="Group_1459" data-name="Group 1459" transform="translate(168.481 16.919)">
    <path id="Path_7703" data-name="Path 7703" d="M22.6-10.815a23.022,23.022,0,0,1-10.553-2.32,17.618,17.618,0,0,1-7.334-6.417,16.536,16.536,0,0,1-2.691-9.329A16.812,16.812,0,0,1,4.713-38.26a17.967,17.967,0,0,1,7.334-6.417A24.339,24.339,0,0,1,22.6-46.948a24.49,24.49,0,0,1,9.6,1.777,18.11,18.11,0,0,1,6.965,5.134s-3.008,2.517-5.276,4.443a3.862,3.862,0,0,1-4.7.1,9.717,9.717,0,0,0-5.962-2.024,8.7,8.7,0,0,0-6.279,2.32,8.555,8.555,0,0,0-2.374,6.318,8.363,8.363,0,0,0,2.374,6.269,8.526,8.526,0,0,0,6.279,2.369A9.717,9.717,0,0,0,29.2-22.267a3.783,3.783,0,0,1,4.643.1c2.322,1.925,5.329,4.443,5.329,4.443A18.11,18.11,0,0,1,32.2-12.592,24.49,24.49,0,0,1,22.6-10.815Z" transform="translate(-2.022 46.948)" fill="#c4c4c4"/>
  </g>
  <g id="Group_1460" data-name="Group 1460" transform="translate(209.217 17.709)">
    <path id="Path_7704" data-name="Path 7704" d="M40.381-45.9v34.554H30.672a2.732,2.732,0,0,1-2.744-2.715V-24.081h-11.5v12.735H3.974V-45.9h8.759a3.808,3.808,0,0,1,2.638,1.086,3.662,3.662,0,0,1,1.055,2.567v8.589h11.5V-45.9Z" transform="translate(-3.974 45.899)" fill="#c4c4c4"/>
  </g>
  <g id="Group_1461" data-name="Group 1461" transform="translate(78.669 17.794)">
    <path id="Path_7705" data-name="Path 7705" d="M21.4-10.491c-5.607,0-10.008-1.423-13.152-4.268s-4.716-6.819-4.716-11.97V-45.616H15.9v18.544c0,2.5.472,4.366,1.467,5.494A5.08,5.08,0,0,0,21.5-19.861,5.263,5.263,0,0,0,25.7-21.578c.943-1.128,1.415-2.993,1.415-5.494V-45.616H39.267v18.887c0,5.151-1.572,9.125-4.716,11.97S27.005-10.491,21.4-10.491Z" transform="translate(-3.531 45.616)" fill="#c4c4c4"/>
  </g>
</svg>
